<svg width="117" height="106" viewBox="0 0 117 106" fill="none" xmlns="http://www.w3.org/2000/svg">
<g filter="url(#filter0_d)">
<g filter="url(#filter1_bd)">
<rect x="8" width="98" height="98" rx="35" fill="url(#paint0_diamond)"/>
</g>
<path d="M51.4461 48.26H55.1361V56.63C54.0561 57.49 52.7961 58.15 51.3561 58.61C49.9161 59.07 48.4361 59.3 46.9161 59.3C44.7761 59.3 42.8461 58.84 41.1261 57.92C39.4061 56.98 38.0561 55.69 37.0761 54.05C36.0961 52.41 35.6061 50.56 35.6061 48.5C35.6061 46.44 36.0961 44.59 37.0761 42.95C38.0561 41.31 39.4061 40.03 41.1261 39.11C42.8661 38.17 44.8161 37.7 46.9761 37.7C48.7361 37.7 50.3361 37.99 51.7761 38.57C53.2161 39.15 54.4261 40 55.4061 41.12L52.9461 43.52C51.3461 41.92 49.4161 41.12 47.1561 41.12C45.6761 41.12 44.3561 41.43 43.1961 42.05C42.0561 42.67 41.1561 43.54 40.4961 44.66C39.8561 45.78 39.5361 47.06 39.5361 48.5C39.5361 49.9 39.8561 51.16 40.4961 52.28C41.1561 53.4 42.0561 54.28 43.1961 54.92C44.3561 55.56 45.6661 55.88 47.1261 55.88C48.7661 55.88 50.2061 55.52 51.4461 54.8V48.26ZM70.09 59.3C67.95 59.3 66.02 58.84 64.3 57.92C62.58 56.98 61.23 55.69 60.25 54.05C59.27 52.39 58.78 50.54 58.78 48.5C58.78 46.46 59.27 44.62 60.25 42.98C61.23 41.32 62.58 40.03 64.3 39.11C66.02 38.17 67.95 37.7 70.09 37.7C72.23 37.7 74.16 38.17 75.88 39.11C77.6 40.03 78.95 41.31 79.93 42.95C80.91 44.59 81.4 46.44 81.4 48.5C81.4 50.56 80.91 52.41 79.93 54.05C78.95 55.69 77.6 56.98 75.88 57.92C74.16 58.84 72.23 59.3 70.09 59.3ZM70.09 55.88C71.49 55.88 72.75 55.57 73.87 54.95C74.99 54.31 75.87 53.43 76.51 52.31C77.15 51.17 77.47 49.9 77.47 48.5C77.47 47.1 77.15 45.84 76.51 44.72C75.87 43.58 74.99 42.7 73.87 42.08C72.75 41.44 71.49 41.12 70.09 41.12C68.69 41.12 67.43 41.44 66.31 42.08C65.19 42.7 64.31 43.58 63.67 44.72C63.03 45.84 62.71 47.1 62.71 48.5C62.71 49.9 63.03 51.17 63.67 52.31C64.31 53.43 65.19 54.31 66.31 54.95C67.43 55.57 68.69 55.88 70.09 55.88Z" fill="#0088C5"/>
<path d="M51.4461 48.26V48.01H51.1961V48.26H51.4461ZM55.1361 48.26H55.3861V48.01H55.1361V48.26ZM55.1361 56.63L55.2919 56.8256L55.3861 56.7505V56.63H55.1361ZM51.3561 58.61L51.2801 58.3719L51.3561 58.61ZM41.1261 57.92L41.0062 58.1394L41.0082 58.1404L41.1261 57.92ZM37.0761 54.05L36.8615 54.1782L37.0761 54.05ZM37.0761 42.95L36.8615 42.8218L37.0761 42.95ZM41.1261 39.11L41.244 39.3304L41.245 39.33L41.1261 39.11ZM51.7761 38.57L51.8695 38.3381L51.7761 38.57ZM55.4061 41.12L55.5807 41.2989L55.7502 41.1336L55.5943 40.9554L55.4061 41.12ZM52.9461 43.52L52.7694 43.6968L52.944 43.8714L53.1207 43.6989L52.9461 43.52ZM43.1961 42.05L43.0783 41.8295L43.0767 41.8304L43.1961 42.05ZM40.4961 44.66L40.2807 44.5331L40.2791 44.536L40.4961 44.66ZM40.4961 52.28L40.2791 52.404L40.2808 52.4069L40.4961 52.28ZM43.1961 54.92L43.0737 55.138L43.0754 55.1389L43.1961 54.92ZM51.4461 54.8L51.5717 55.0162L51.6961 54.9439V54.8H51.4461ZM51.4461 48.51H55.1361V48.01H51.4461V48.51ZM54.8861 48.26V56.63H55.3861V48.26H54.8861ZM54.9804 56.4344C53.9263 57.2738 52.6939 57.9202 51.2801 58.3719L51.4322 58.8481C52.8984 58.3798 54.186 57.7062 55.2919 56.8256L54.9804 56.4344ZM51.2801 58.3719C49.8648 58.824 48.4105 59.05 46.9161 59.05V59.55C48.4618 59.55 49.9675 59.316 51.4322 58.8481L51.2801 58.3719ZM46.9161 59.05C44.8132 59.05 42.9243 58.5983 41.244 57.6996L41.0082 58.1404C42.7679 59.0817 44.7391 59.55 46.9161 59.55V59.05ZM41.246 57.7006C39.5641 56.7814 38.2472 55.5224 37.2907 53.9218L36.8615 54.1782C37.865 55.8576 39.2482 57.1786 41.0062 58.1394L41.246 57.7006ZM37.2907 53.9218C36.3357 52.3236 35.8561 50.5185 35.8561 48.5H35.3561C35.3561 50.6015 35.8566 52.4964 36.8615 54.1782L37.2907 53.9218ZM35.8561 48.5C35.8561 46.4815 36.3357 44.6764 37.2907 43.0782L36.8615 42.8218C35.8566 44.5036 35.3561 46.3985 35.3561 48.5H35.8561ZM37.2907 43.0782C38.247 41.478 39.5632 40.2295 41.244 39.3304L41.0082 38.8896C39.2491 39.8305 37.8653 41.142 36.8615 42.8218L37.2907 43.0782ZM41.245 39.33C42.9452 38.4115 44.8537 37.95 46.9761 37.95V37.45C44.7786 37.45 42.7871 37.9285 41.0073 38.89L41.245 39.33ZM46.9761 37.95C48.7084 37.95 50.2761 38.2353 51.6827 38.8019L51.8695 38.3381C50.3961 37.7447 48.7639 37.45 46.9761 37.45V37.95ZM51.6827 38.8019C53.0879 39.3679 54.265 40.1955 55.218 41.2846L55.5943 40.9554C54.5873 39.8045 53.3443 38.9321 51.8695 38.3381L51.6827 38.8019ZM55.2316 40.9411L52.7716 43.3411L53.1207 43.6989L55.5807 41.2989L55.2316 40.9411ZM53.1229 43.3432C51.4761 41.6964 49.4825 40.87 47.1561 40.87V41.37C49.3497 41.37 51.2162 42.1436 52.7694 43.6968L53.1229 43.3432ZM47.1561 40.87C45.6402 40.87 44.2789 41.1878 43.0783 41.8295L43.314 42.2705C44.4334 41.6722 45.712 41.37 47.1561 41.37V40.87ZM43.0767 41.8304C41.8968 42.4721 40.9637 43.3741 40.2808 44.5331L40.7115 44.7869C41.3486 43.7059 42.2154 42.8679 43.3156 42.2696L43.0767 41.8304ZM40.2791 44.536C39.6151 45.698 39.2861 47.0217 39.2861 48.5H39.7861C39.7861 47.0983 40.0972 45.862 40.7132 44.784L40.2791 44.536ZM39.2861 48.5C39.2861 49.9397 39.6157 51.2431 40.2791 52.404L40.7132 52.156C40.0966 51.0769 39.7861 49.8603 39.7861 48.5H39.2861ZM40.2808 52.4069C40.9633 53.5652 41.8955 54.4765 43.0737 55.138L43.3185 54.702C42.2168 54.0835 41.349 53.2348 40.7115 52.1531L40.2808 52.4069ZM43.0754 55.1389C44.276 55.8013 45.6283 56.13 47.1261 56.13V55.63C45.704 55.63 44.4362 55.3187 43.3169 54.7011L43.0754 55.1389ZM47.1261 56.13C48.8038 56.13 50.2883 55.7614 51.5717 55.0162L51.3206 54.5838C50.1239 55.2786 48.7285 55.63 47.1261 55.63V56.13ZM51.6961 54.8V48.26H51.1961V54.8H51.6961ZM64.3 57.92L64.1801 58.1394L64.182 58.1404L64.3 57.92ZM60.25 54.05L60.0347 54.1771L60.0354 54.1782L60.25 54.05ZM60.25 42.98L60.4646 43.1082L60.4652 43.1071L60.25 42.98ZM64.3 39.11L64.4179 39.3305L64.4199 39.3294L64.3 39.11ZM75.88 39.11L75.7601 39.3294L75.762 39.3304L75.88 39.11ZM79.93 42.95L79.7154 43.0782L79.93 42.95ZM79.93 54.05L79.7154 53.9218L79.93 54.05ZM75.88 57.92L75.9979 58.1405L75.9999 58.1394L75.88 57.92ZM73.87 54.95L73.9911 55.1687L73.994 55.1671L73.87 54.95ZM76.51 52.31L76.727 52.434L76.728 52.4324L76.51 52.31ZM76.51 44.72L76.292 44.8424L76.2929 44.844L76.51 44.72ZM73.87 42.08L73.7459 42.2971L73.7489 42.2987L73.87 42.08ZM66.31 42.08L66.4311 42.2987L66.434 42.2971L66.31 42.08ZM63.67 44.72L63.887 44.844L63.888 44.8424L63.67 44.72ZM63.67 52.31L63.452 52.4324L63.4529 52.434L63.67 52.31ZM66.31 54.95L66.1859 55.1671L66.1889 55.1687L66.31 54.95ZM70.09 59.05C67.987 59.05 66.0982 58.5983 64.4179 57.6996L64.182 58.1404C65.9418 59.0817 67.9129 59.55 70.09 59.55V59.05ZM64.4199 57.7006C62.7379 56.7814 61.4211 55.5224 60.4646 53.9218L60.0354 54.1782C61.0388 55.8576 62.422 57.1786 64.1801 58.1394L64.4199 57.7006ZM60.4652 53.9229C59.5093 52.3037 59.03 50.498 59.03 48.5H58.53C58.53 50.582 59.0306 52.4763 60.0347 54.1771L60.4652 53.9229ZM59.03 48.5C59.03 46.502 59.5093 44.7068 60.4646 43.1082L60.0354 42.8518C59.0306 44.5332 58.53 46.418 58.53 48.5H59.03ZM60.4652 43.1071C61.4217 41.487 62.7378 40.2291 64.4179 39.3304L64.182 38.8896C62.4222 39.8309 61.0383 41.153 60.0347 42.8529L60.4652 43.1071ZM64.4199 39.3294C66.0998 38.4113 67.9879 37.95 70.09 37.95V37.45C67.912 37.45 65.9401 37.9287 64.1801 38.8906L64.4199 39.3294ZM70.09 37.95C72.192 37.95 74.0801 38.4113 75.7601 39.3294L75.9999 38.8906C74.2398 37.9287 72.2679 37.45 70.09 37.45V37.95ZM75.762 39.3304C77.4429 40.2295 78.7591 41.478 79.7154 43.0782L80.1446 42.8218C79.1408 41.142 77.757 39.8305 75.9979 38.8896L75.762 39.3304ZM79.7154 43.0782C80.6704 44.6764 81.15 46.4815 81.15 48.5H81.65C81.65 46.3985 81.1495 44.5036 80.1446 42.8218L79.7154 43.0782ZM81.15 48.5C81.15 50.5185 80.6704 52.3236 79.7154 53.9218L80.1446 54.1782C81.1495 52.4964 81.65 50.6015 81.65 48.5H81.15ZM79.7154 53.9218C78.7589 55.5224 77.442 56.7814 75.7601 57.7006L75.9999 58.1394C77.7579 57.1786 79.1411 55.8576 80.1446 54.1782L79.7154 53.9218ZM75.762 57.6996C74.0818 58.5983 72.1929 59.05 70.09 59.05V59.55C72.267 59.55 74.2382 59.0817 75.9979 58.1404L75.762 57.6996ZM70.09 56.13C71.5283 56.13 72.8306 55.8111 73.991 55.1687L73.7489 54.7313C72.6693 55.3289 71.4517 55.63 70.09 55.63V56.13ZM73.994 55.1671C75.1528 54.5049 76.0649 53.5928 76.727 52.434L76.2929 52.186C75.675 53.2672 74.8272 54.1151 73.7459 54.7329L73.994 55.1671ZM76.728 52.4324C77.3904 51.2524 77.72 49.9397 77.72 48.5H77.22C77.22 49.8603 76.9095 51.0876 76.292 52.1876L76.728 52.4324ZM77.72 48.5C77.72 47.0603 77.3904 45.7569 76.727 44.596L76.2929 44.844C76.9095 45.9231 77.22 47.1397 77.22 48.5H77.72ZM76.728 44.5976C76.0657 43.418 75.1526 42.5043 73.991 41.8613L73.7489 42.2987C74.8274 42.8957 75.6742 43.742 76.292 44.8424L76.728 44.5976ZM73.994 41.8629C72.833 41.1995 71.5296 40.87 70.09 40.87V41.37C71.4503 41.37 72.6669 41.6805 73.7459 42.2971L73.994 41.8629ZM70.09 40.87C68.6503 40.87 67.3469 41.1995 66.1859 41.8629L66.434 42.2971C67.513 41.6805 68.7296 41.37 70.09 41.37V40.87ZM66.1889 41.8613C65.0274 42.5043 64.1142 43.418 63.452 44.5976L63.888 44.8424C64.5057 43.742 65.3526 42.8957 66.431 42.2987L66.1889 41.8613ZM63.4529 44.596C62.7895 45.7569 62.46 47.0603 62.46 48.5H62.96C62.96 47.1397 63.2704 45.9231 63.887 44.844L63.4529 44.596ZM62.46 48.5C62.46 49.9397 62.7895 51.2524 63.452 52.4324L63.888 52.1876C63.2704 51.0876 62.96 49.8603 62.96 48.5H62.46ZM63.4529 52.434C64.1151 53.5928 65.0272 54.5049 66.1859 55.1671L66.434 54.7329C65.3528 54.1151 64.5049 53.2672 63.887 52.186L63.4529 52.434ZM66.1889 55.1687C67.3493 55.8111 68.6517 56.13 70.09 56.13V55.63C68.7283 55.63 67.5106 55.3289 66.431 54.7313L66.1889 55.1687Z" fill="#00A2EA"/>
</g>
<defs>
<filter id="filter0_d" x="-4" y="0" width="125" height="106" filterUnits="userSpaceOnUse" color-interpolation-filters="sRGB">
<feFlood flood-opacity="0" result="BackgroundImageFix"/>
<feColorMatrix in="SourceAlpha" type="matrix" values="0 0 0 0 0 0 0 0 0 0 0 0 0 0 0 0 0 0 127 0"/>
<feOffset dy="4"/>
<feGaussianBlur stdDeviation="2"/>
<feColorMatrix type="matrix" values="0 0 0 0 0 0 0 0 0 0 0 0 0 0 0 0 0 0 0.25 0"/>
<feBlend mode="normal" in2="BackgroundImageFix" result="effect1_dropShadow"/>
<feBlend mode="normal" in="SourceGraphic" in2="effect1_dropShadow" result="shape"/>
</filter>
<filter id="filter1_bd" x="4" y="-4" width="106" height="106" filterUnits="userSpaceOnUse" color-interpolation-filters="sRGB">
<feFlood flood-opacity="0" result="BackgroundImageFix"/>
<feGaussianBlur in="BackgroundImage" stdDeviation="2"/>
<feComposite in2="SourceAlpha" operator="in" result="effect1_backgroundBlur"/>
<feColorMatrix in="SourceAlpha" type="matrix" values="0 0 0 0 0 0 0 0 0 0 0 0 0 0 0 0 0 0 127 0"/>
<feOffset dx="4" dy="4"/>
<feColorMatrix type="matrix" values="0 0 0 0 0.0511111 0 0 0 0 0.0716833 0 0 0 0 0.0958333 0 0 0 0.12 0"/>
<feBlend mode="normal" in2="effect1_backgroundBlur" result="effect2_dropShadow"/>
<feBlend mode="normal" in="SourceGraphic" in2="effect2_dropShadow" result="shape"/>
</filter>
<radialGradient id="paint0_diamond" cx="0" cy="0" r="1" gradientUnits="userSpaceOnUse" gradientTransform="translate(57 49) rotate(90) scale(49)">
<stop offset="0.999848" stop-color="#FFFB93"/>
<stop offset="1" stop-color="#FFE25A"/>
</radialGradient>
</defs>
</svg>
