<svg width="117" height="43" viewBox="0 0 117 43" fill="none" xmlns="http://www.w3.org/2000/svg">
<g filter="url(#filter0_d)">
<g filter="url(#filter1_bd)">
<rect x="8" width="98" height="35" rx="17.5" fill="#FFE771"/>
</g>
<path d="M36.3364 23.0069C35.5264 23.0069 34.7414 22.8919 33.9814 22.6619C33.2314 22.4319 32.6364 22.1269 32.1964 21.7469L32.8714 20.2319C33.3014 20.5719 33.8264 20.8519 34.4464 21.0719C35.0764 21.2819 35.7064 21.3869 36.3364 21.3869C37.1164 21.3869 37.6964 21.2619 38.0764 21.0119C38.4664 20.7619 38.6614 20.4319 38.6614 20.0219C38.6614 19.7219 38.5514 19.4769 38.3314 19.2869C38.1214 19.0869 37.8514 18.9319 37.5214 18.8219C37.1914 18.7119 36.7414 18.5869 36.1714 18.4469C35.3714 18.2569 34.7214 18.0669 34.2214 17.8769C33.7314 17.6869 33.3064 17.3919 32.9464 16.9919C32.5964 16.5819 32.4214 16.0319 32.4214 15.3419C32.4214 14.7619 32.5764 14.2369 32.8864 13.7669C33.2064 13.2869 33.6814 12.9069 34.3114 12.6269C34.9514 12.3469 35.7314 12.2069 36.6514 12.2069C37.2914 12.2069 37.9214 12.2869 38.5414 12.4469C39.1614 12.6069 39.6964 12.8369 40.1464 13.1369L39.5314 14.6519C39.0714 14.3819 38.5914 14.1769 38.0914 14.0369C37.5914 13.8969 37.1064 13.8269 36.6364 13.8269C35.8664 13.8269 35.2914 13.9569 34.9114 14.2169C34.5414 14.4769 34.3564 14.8219 34.3564 15.2519C34.3564 15.5519 34.4614 15.7969 34.6714 15.9869C34.8914 16.1769 35.1664 16.3269 35.4964 16.4369C35.8264 16.5469 36.2764 16.6719 36.8464 16.8119C37.6264 16.9919 38.2664 17.1819 38.7664 17.3819C39.2664 17.5719 39.6914 17.8669 40.0414 18.2669C40.4014 18.6669 40.5814 19.2069 40.5814 19.8869C40.5814 20.4669 40.4214 20.9919 40.1014 21.4619C39.7914 21.9319 39.3164 22.3069 38.6764 22.5869C38.0364 22.8669 37.2564 23.0069 36.3364 23.0069ZM42.335 14.8469H44.21V22.8569H42.335V14.8469ZM43.28 13.5269C42.94 13.5269 42.655 13.4219 42.425 13.2119C42.195 12.9919 42.08 12.7219 42.08 12.4019C42.08 12.0819 42.195 11.8169 42.425 11.6069C42.655 11.3869 42.94 11.2769 43.28 11.2769C43.62 11.2769 43.905 11.3819 44.135 11.5919C44.365 11.7919 44.48 12.0469 44.48 12.3569C44.48 12.6869 44.365 12.9669 44.135 13.1969C43.915 13.4169 43.63 13.5269 43.28 13.5269ZM54.6209 14.8469V21.6419C54.6209 24.4619 53.1809 25.8719 50.3009 25.8719C49.5309 25.8719 48.8009 25.7719 48.1109 25.5719C47.4209 25.3819 46.8509 25.1019 46.4009 24.7319L47.2409 23.3219C47.5909 23.6119 48.0309 23.8419 48.5609 24.0119C49.1009 24.1919 49.6459 24.2819 50.1959 24.2819C51.0759 24.2819 51.7209 24.0819 52.1309 23.6819C52.5409 23.2819 52.7459 22.6719 52.7459 21.8519V21.4319C52.4259 21.7819 52.0359 22.0469 51.5759 22.2269C51.1159 22.4069 50.6109 22.4969 50.0609 22.4969C49.3009 22.4969 48.6109 22.3369 47.9909 22.0169C47.3809 21.6869 46.8959 21.2269 46.5359 20.6369C46.1859 20.0469 46.0109 19.3719 46.0109 18.6119C46.0109 17.8519 46.1859 17.1819 46.5359 16.6019C46.8959 16.0119 47.3809 15.5569 47.9909 15.2369C48.6109 14.9169 49.3009 14.7569 50.0609 14.7569C50.6409 14.7569 51.1659 14.8519 51.6359 15.0419C52.1159 15.2319 52.5159 15.5219 52.8359 15.9119V14.8469H54.6209ZM50.3459 20.9069C51.0559 20.9069 51.6359 20.6969 52.0859 20.2769C52.5459 19.8469 52.7759 19.2919 52.7759 18.6119C52.7759 17.9419 52.5459 17.3969 52.0859 16.9769C51.6359 16.5569 51.0559 16.3469 50.3459 16.3469C49.6259 16.3469 49.0359 16.5569 48.5759 16.9769C48.1259 17.3969 47.9009 17.9419 47.9009 18.6119C47.9009 19.2919 48.1259 19.8469 48.5759 20.2769C49.0359 20.6969 49.6259 20.9069 50.3459 20.9069ZM61.631 14.7569C62.641 14.7569 63.451 15.0519 64.061 15.6419C64.671 16.2319 64.976 17.1069 64.976 18.2669V22.8569H63.101V18.5069C63.101 17.8069 62.936 17.2819 62.606 16.9319C62.276 16.5719 61.806 16.3919 61.196 16.3919C60.506 16.3919 59.961 16.6019 59.561 17.0219C59.161 17.4319 58.961 18.0269 58.961 18.8069V22.8569H57.086V14.8469H58.871V15.8819C59.181 15.5119 59.571 15.2319 60.041 15.0419C60.511 14.8519 61.041 14.7569 61.631 14.7569ZM71.68 12.3569H73.63V22.8569H71.68V12.3569ZM80.8351 14.7569C81.8451 14.7569 82.6551 15.0519 83.2651 15.6419C83.8751 16.2319 84.1801 17.1069 84.1801 18.2669V22.8569H82.3051V18.5069C82.3051 17.8069 82.1401 17.2819 81.8101 16.9319C81.4801 16.5719 81.0101 16.3919 80.4001 16.3919C79.7101 16.3919 79.1651 16.6019 78.7651 17.0219C78.3651 17.4319 78.1651 18.0269 78.1651 18.8069V22.8569H76.2901V14.8469H78.0751V15.8819C78.3851 15.5119 78.7751 15.2319 79.2451 15.0419C79.7151 14.8519 80.2451 14.7569 80.8351 14.7569Z" fill="#0088C5"/>
<path d="M33.9814 22.6619L33.9081 22.9009L33.909 22.9012L33.9814 22.6619ZM32.1964 21.7469L31.968 21.6452L31.8925 21.8148L32.033 21.9361L32.1964 21.7469ZM32.8714 20.2319L33.0264 20.0358L32.774 19.8362L32.643 20.1302L32.8714 20.2319ZM34.4464 21.0719L34.3628 21.3076L34.3673 21.3091L34.4464 21.0719ZM38.0764 21.0119L37.9415 20.8014L37.939 20.8031L38.0764 21.0119ZM38.3314 19.2869L38.1588 19.4682L38.168 19.4761L38.3314 19.2869ZM37.5214 18.8219L37.6004 18.5848L37.5214 18.8219ZM36.1714 18.4469L36.231 18.2041L36.2292 18.2037L36.1714 18.4469ZM34.2214 17.8769L34.131 18.11L34.1326 18.1106L34.2214 17.8769ZM32.9464 16.9919L32.7562 17.1543L32.7606 17.1592L32.9464 16.9919ZM32.8864 13.7669L32.6784 13.6283L32.6777 13.6293L32.8864 13.7669ZM34.3114 12.6269L34.2112 12.3979L34.2099 12.3985L34.3114 12.6269ZM38.5414 12.4469L38.4789 12.689L38.5414 12.4469ZM40.1464 13.1369L40.378 13.231L40.4547 13.042L40.2851 12.9289L40.1464 13.1369ZM39.5314 14.6519L39.4048 14.8675L39.6543 15.0139L39.763 14.746L39.5314 14.6519ZM38.0914 14.0369L38.024 14.2777L38.0914 14.0369ZM34.9114 14.2169L34.7702 14.0106L34.7677 14.0124L34.9114 14.2169ZM34.6714 15.9869L34.5036 16.1724L34.508 16.1761L34.6714 15.9869ZM35.4964 16.4369L35.5754 16.1998L35.4964 16.4369ZM36.8464 16.8119L36.7868 17.0547L36.7902 17.0555L36.8464 16.8119ZM38.7664 17.3819L38.6735 17.6141L38.6776 17.6156L38.7664 17.3819ZM40.0414 18.2669L39.8532 18.4316L39.8556 18.4342L40.0414 18.2669ZM40.1014 21.4619L39.8947 21.3212L39.8927 21.3243L40.1014 21.4619ZM38.6764 22.5869L38.5762 22.3579L38.6764 22.5869ZM36.3364 22.7569C35.5504 22.7569 34.7898 22.6454 34.0538 22.4227L33.909 22.9012C34.6929 23.1385 35.5024 23.2569 36.3364 23.2569V22.7569ZM34.0547 22.4229C33.3269 22.1997 32.7661 21.9086 32.3598 21.5577L32.033 21.9361C32.5067 22.3453 33.1359 22.6641 33.9081 22.9009L34.0547 22.4229ZM32.4247 21.8487L33.0997 20.3337L32.643 20.1302L31.968 21.6452L32.4247 21.8487ZM32.7163 20.428C33.1716 20.788 33.722 21.0802 34.3628 21.3075L34.53 20.8363C33.9308 20.6237 33.4311 20.3558 33.0264 20.0358L32.7163 20.428ZM34.3673 21.3091C35.0214 21.5271 35.6781 21.6369 36.3364 21.6369V21.1369C35.7347 21.1369 35.1313 21.0367 34.5254 20.8348L34.3673 21.3091ZM36.3364 21.6369C37.1343 21.6369 37.7731 21.5107 38.2138 21.2208L37.939 20.8031C37.6196 21.0132 37.0985 21.1369 36.3364 21.1369V21.6369ZM38.2113 21.2224C38.662 20.9335 38.9114 20.5294 38.9114 20.0219H38.4114C38.4114 20.3345 38.2707 20.5904 37.9415 20.8015L38.2113 21.2224ZM38.9114 20.0219C38.9114 19.6519 38.7718 19.3369 38.4948 19.0977L38.168 19.4761C38.331 19.6169 38.4114 19.7919 38.4114 20.0219H38.9114ZM38.5038 19.1059C38.2624 18.876 37.9585 18.7041 37.6004 18.5848L37.4423 19.0591C37.7443 19.1598 37.9804 19.2979 38.159 19.468L38.5038 19.1059ZM37.6004 18.5848C37.2612 18.4717 36.8038 18.3448 36.231 18.2041L36.1118 18.6897C36.679 18.829 37.1216 18.9522 37.4423 19.0591L37.6004 18.5848ZM36.2292 18.2037C35.4347 18.015 34.7962 17.8279 34.3102 17.6432L34.1326 18.1106C34.6466 18.3059 35.308 18.4988 36.1136 18.6902L36.2292 18.2037ZM34.3118 17.6438C33.8592 17.4684 33.4666 17.1963 33.1322 16.8247L32.7606 17.1592C33.1461 17.5876 33.6036 17.9055 34.131 18.11L34.3118 17.6438ZM33.1365 16.8296C32.835 16.4763 32.6714 15.9895 32.6714 15.3419H32.1714C32.1714 16.0744 32.3578 16.6875 32.7562 17.1542L33.1365 16.8296ZM32.6714 15.3419C32.6714 14.8093 32.8129 14.3324 33.0951 13.9046L32.6777 13.6293C32.3399 14.1414 32.1714 14.7146 32.1714 15.3419H32.6714ZM33.0944 13.9056C33.3834 13.4721 33.8177 13.1199 34.4129 12.8554L34.2099 12.3985C33.5451 12.6939 33.0294 13.1017 32.6784 13.6283L33.0944 13.9056ZM34.4116 12.856C35.0117 12.5934 35.7555 12.4569 36.6514 12.4569V11.9569C35.7073 11.9569 34.8911 12.1004 34.2112 12.3979L34.4116 12.856ZM36.6514 12.4569C37.2703 12.4569 37.8793 12.5343 38.4789 12.689L38.6039 12.2049C37.9635 12.0396 37.3125 11.9569 36.6514 11.9569V12.4569ZM38.4789 12.689C39.0767 12.8433 39.5849 13.063 40.0077 13.3449L40.2851 12.9289C39.8079 12.6108 39.2461 12.3706 38.6039 12.2049L38.4789 12.689ZM39.9147 13.0429L39.2997 14.5579L39.763 14.746L40.378 13.231L39.9147 13.0429ZM39.6579 14.4363C39.1799 14.1557 38.6801 13.9421 38.1588 13.7962L38.024 14.2777C38.5027 14.4117 38.9629 14.6081 39.4048 14.8675L39.6579 14.4363ZM38.1588 13.7962C37.6391 13.6507 37.1314 13.5769 36.6364 13.5769V14.0769C37.0814 14.0769 37.5437 14.1432 38.024 14.2777L38.1588 13.7962ZM36.6364 13.5769C35.8465 13.5769 35.2113 13.7088 34.7702 14.0106L35.0526 14.4233C35.3714 14.2051 35.8863 14.0769 36.6364 14.0769V13.5769ZM34.7677 14.0124C34.3351 14.3163 34.1064 14.7357 34.1064 15.2519H34.6064C34.6064 14.9082 34.7477 14.6375 35.0551 14.4215L34.7677 14.0124ZM34.1064 15.2519C34.1064 15.6178 34.2379 15.9318 34.5037 16.1723L34.8391 15.8015C34.6849 15.662 34.6064 15.486 34.6064 15.2519H34.1064ZM34.508 16.1761C34.757 16.3912 35.0623 16.5558 35.4173 16.6741L35.5754 16.1998C35.2705 16.0981 35.0257 15.9626 34.8348 15.7977L34.508 16.1761ZM35.4173 16.6741C35.7566 16.7872 36.214 16.914 36.7868 17.0547L36.906 16.5691C36.3388 16.4298 35.8962 16.3067 35.5754 16.1998L35.4173 16.6741ZM36.7902 17.0555C37.5631 17.2339 38.1897 17.4205 38.6735 17.6141L38.8592 17.1498C38.3431 16.9434 37.6897 16.75 36.9026 16.5683L36.7902 17.0555ZM38.6776 17.6156C39.1396 17.7912 39.5304 18.0626 39.8532 18.4316L40.2295 18.1023C39.8524 17.6713 39.3932 17.3527 38.8552 17.1482L38.6776 17.6156ZM39.8556 18.4342C40.1642 18.7771 40.3314 19.2518 40.3314 19.8869H40.8314C40.8314 19.162 40.6386 18.5568 40.2272 18.0997L39.8556 18.4342ZM40.3314 19.8869C40.3314 20.4178 40.1859 20.8936 39.8947 21.3212L40.308 21.6026C40.6569 21.0903 40.8314 20.516 40.8314 19.8869H40.3314ZM39.8927 21.3243C39.615 21.7453 39.1826 22.0926 38.5762 22.3579L38.7766 22.816C39.4502 22.5213 39.9677 22.1186 40.3101 21.5996L39.8927 21.3243ZM38.5762 22.3579C37.9761 22.6204 37.2323 22.7569 36.3364 22.7569V23.2569C37.2805 23.2569 38.0967 23.1134 38.7766 22.816L38.5762 22.3579ZM42.335 14.8469V14.5969H42.085V14.8469H42.335ZM44.21 14.8469H44.46V14.5969H44.21V14.8469ZM44.21 22.8569V23.1069H44.46V22.8569H44.21ZM42.335 22.8569H42.085V23.1069H42.335V22.8569ZM42.425 13.2119L42.2521 13.3926L42.2564 13.3966L42.425 13.2119ZM42.425 11.6069L42.5936 11.7916L42.5978 11.7876L42.425 11.6069ZM44.135 11.5919L43.9664 11.7766L43.9709 11.7806L44.135 11.5919ZM44.135 13.1969L43.9582 13.0202L44.135 13.1969ZM42.335 15.0969H44.21V14.5969H42.335V15.0969ZM43.96 14.8469V22.8569H44.46V14.8469H43.96ZM44.21 22.6069H42.335V23.1069H44.21V22.6069ZM42.585 22.8569V14.8469H42.085V22.8569H42.585ZM43.28 13.2769C42.9961 13.2769 42.7731 13.1912 42.5935 13.0273L42.2564 13.3966C42.5369 13.6526 42.8838 13.7769 43.28 13.7769V13.2769ZM42.5978 13.0313C42.4174 12.8587 42.33 12.6541 42.33 12.4019H41.83C41.83 12.7897 41.9726 13.1251 42.2522 13.3926L42.5978 13.0313ZM42.33 12.4019C42.33 12.15 42.417 11.9527 42.5935 11.7916L42.2564 11.4223C41.9729 11.6811 41.83 12.0139 41.83 12.4019H42.33ZM42.5978 11.7876C42.7779 11.6153 42.9995 11.5269 43.28 11.5269V11.0269C42.8804 11.0269 42.5321 11.1585 42.2522 11.4263L42.5978 11.7876ZM43.28 11.5269C43.5638 11.5269 43.7869 11.6126 43.9664 11.7766L44.3035 11.4073C44.0231 11.1512 43.6761 11.0269 43.28 11.0269V11.5269ZM43.9709 11.7806C44.1453 11.9322 44.23 12.1179 44.23 12.3569H44.73C44.73 11.976 44.5847 11.6517 44.299 11.4033L43.9709 11.7806ZM44.23 12.3569C44.23 12.6217 44.1406 12.8378 43.9582 13.0202L44.3118 13.3737C44.5894 13.0961 44.73 12.7522 44.73 12.3569H44.23ZM43.9582 13.0202C43.7911 13.1872 43.5727 13.2769 43.28 13.2769V13.7769C43.6872 13.7769 44.0388 13.6466 44.3118 13.3737L43.9582 13.0202ZM54.6209 14.8469H54.8709V14.5969H54.6209V14.8469ZM48.1109 25.5719L48.1805 25.3318L48.1773 25.3309L48.1109 25.5719ZM46.4009 24.7319L46.1861 24.604L46.0762 24.7886L46.2421 24.925L46.4009 24.7319ZM47.2409 23.3219L47.4004 23.1294L47.1756 22.9431L47.0261 23.194L47.2409 23.3219ZM48.5609 24.0119L48.64 23.7747L48.6373 23.7739L48.5609 24.0119ZM52.1309 23.6819L51.9563 23.503L52.1309 23.6819ZM52.7459 21.4319H52.9959V20.788L52.5614 21.2632L52.7459 21.4319ZM51.5759 22.2269L51.4848 21.9941L51.5759 22.2269ZM47.9909 22.0169L47.8719 22.2369L47.8763 22.2391L47.9909 22.0169ZM46.5359 20.6369L46.3209 20.7645L46.3225 20.7671L46.5359 20.6369ZM46.5359 16.6019L46.3225 16.4717L46.3219 16.4728L46.5359 16.6019ZM47.9909 15.2369L47.8763 15.0148L47.8748 15.0155L47.9909 15.2369ZM51.6359 15.0419L51.5422 15.2737L51.5439 15.2744L51.6359 15.0419ZM52.8359 15.9119L52.6427 16.0705L53.0859 16.6107V15.9119H52.8359ZM52.8359 14.8469V14.5969H52.5859V14.8469H52.8359ZM52.0859 20.2769L52.2565 20.4597L52.2566 20.4596L52.0859 20.2769ZM52.0859 16.9769L51.9153 17.1597L51.9174 17.1616L52.0859 16.9769ZM48.5759 16.9769L48.4073 16.7923L48.4053 16.7942L48.5759 16.9769ZM48.5759 20.2769L48.4032 20.4577L48.4074 20.4616L48.5759 20.2769ZM54.3709 14.8469V21.6419H54.8709V14.8469H54.3709ZM54.3709 21.6419C54.3709 23.012 54.0215 23.994 53.366 24.6358C52.7096 25.2785 51.7037 25.6219 50.3009 25.6219V26.1219C51.7781 26.1219 52.9322 25.7603 53.7158 24.9931C54.5004 24.2248 54.8709 23.0918 54.8709 21.6419H54.3709ZM50.3009 25.6219C49.5528 25.6219 48.8463 25.5248 48.1805 25.3318L48.0413 25.812C48.7555 26.0191 49.5091 26.1219 50.3009 26.1219V25.6219ZM48.1773 25.3309C47.5136 25.1481 46.9771 24.8821 46.5597 24.5388L46.2421 24.925C46.7247 25.3218 47.3283 25.6157 48.0445 25.813L48.1773 25.3309ZM46.6157 24.8599L47.4557 23.4499L47.0261 23.194L46.1861 24.604L46.6157 24.8599ZM47.0814 23.5144C47.4608 23.8288 47.9308 24.0724 48.4846 24.25L48.6373 23.7739C48.131 23.6115 47.721 23.3951 47.4004 23.1294L47.0814 23.5144ZM48.4819 24.2491C49.0465 24.4373 49.6181 24.5319 50.1959 24.5319V24.0319C49.6737 24.0319 49.1554 23.9466 48.64 23.7748L48.4819 24.2491ZM50.1959 24.5319C51.107 24.5319 51.829 24.3257 52.3055 23.8609L51.9563 23.503C51.6128 23.8382 51.0448 24.0319 50.1959 24.0319V24.5319ZM52.3055 23.8609C52.7813 23.3967 52.9959 22.7099 52.9959 21.8519H52.4959C52.4959 22.6339 52.3005 23.1672 51.9563 23.503L52.3055 23.8609ZM52.9959 21.8519V21.4319H52.4959V21.8519H52.9959ZM52.5614 21.2632C52.2683 21.5838 51.9107 21.8275 51.4848 21.9941L51.667 22.4597C52.1611 22.2664 52.5835 21.9801 52.9304 21.6006L52.5614 21.2632ZM51.4848 21.9941C51.057 22.1615 50.5833 22.2469 50.0609 22.2469V22.7469C50.6386 22.7469 51.1749 22.6523 51.667 22.4597L51.4848 21.9941ZM50.0609 22.2469C49.3372 22.2469 48.687 22.0949 48.1056 21.7948L47.8763 22.2391C48.5348 22.579 49.2647 22.7469 50.0609 22.7469V22.2469ZM48.1099 21.797C47.5386 21.488 47.0862 21.0589 46.7493 20.5067L46.3225 20.7671C46.7056 21.395 47.2233 21.8859 47.872 22.2368L48.1099 21.797ZM46.7509 20.5094C46.4262 19.9621 46.2609 19.332 46.2609 18.6119H45.7609C45.7609 19.4118 45.9456 20.1318 46.3209 20.7645L46.7509 20.5094ZM46.2609 18.6119C46.2609 17.8918 46.4263 17.2675 46.75 16.7311L46.3219 16.4728C45.9456 17.0963 45.7609 17.8121 45.7609 18.6119H46.2609ZM46.7493 16.7321C47.0858 16.1806 47.5373 15.7572 48.1071 15.4583L47.8748 15.0155C47.2246 15.3566 46.706 15.8432 46.3225 16.4717L46.7493 16.7321ZM48.1056 15.4591C48.687 15.159 49.3372 15.0069 50.0609 15.0069V14.5069C49.2647 14.5069 48.5348 14.6749 47.8763 15.0148L48.1056 15.4591ZM50.0609 15.0069C50.6134 15.0069 51.106 15.0974 51.5422 15.2737L51.7296 14.8102C51.2259 14.6065 50.6684 14.5069 50.0609 14.5069V15.0069ZM51.5439 15.2744C51.9854 15.4491 52.3502 15.7141 52.6427 16.0705L53.0292 15.7534C52.6816 15.3297 52.2464 15.0147 51.7279 14.8095L51.5439 15.2744ZM53.0859 15.9119V14.8469H52.5859V15.9119H53.0859ZM52.8359 15.0969H54.6209V14.5969H52.8359V15.0969ZM50.3459 21.1569C51.1088 21.1569 51.7531 20.9295 52.2565 20.4597L51.9153 20.0942C51.5187 20.4643 51.003 20.6569 50.3459 20.6569V21.1569ZM52.2566 20.4596C52.7716 19.9782 53.0259 19.355 53.0259 18.6119H52.5259C52.5259 19.2289 52.3203 19.7156 51.9152 20.0943L52.2566 20.4596ZM53.0259 18.6119C53.0259 17.8776 52.7706 17.2636 52.2545 16.7923L51.9174 17.1616C52.3212 17.5303 52.5259 18.0062 52.5259 18.6119H53.0259ZM52.2565 16.7942C51.7531 16.3243 51.1088 16.0969 50.3459 16.0969V16.5969C51.003 16.5969 51.5187 16.7895 51.9153 17.1597L52.2565 16.7942ZM50.3459 16.0969C49.5739 16.0969 48.9206 16.3237 48.4074 16.7923L48.7445 17.1616C49.1513 16.7901 49.6779 16.5969 50.3459 16.5969V16.0969ZM48.4053 16.7942C47.8999 17.2659 47.6509 17.8795 47.6509 18.6119H48.1509C48.1509 18.0044 48.3519 17.5279 48.7465 17.1597L48.4053 16.7942ZM47.6509 18.6119C47.6509 19.3532 47.899 19.9759 48.4032 20.4577L48.7486 20.0962C48.3528 19.718 48.1509 19.2307 48.1509 18.6119H47.6509ZM48.4074 20.4616C48.9206 20.9301 49.5739 21.1569 50.3459 21.1569V20.6569C49.6779 20.6569 49.1513 20.4637 48.7445 20.0923L48.4074 20.4616ZM64.061 15.6419L64.2348 15.4622L64.061 15.6419ZM64.976 22.8569V23.1069H65.226V22.8569H64.976ZM63.101 22.8569H62.851V23.1069H63.101V22.8569ZM62.606 16.9319L62.4216 17.1009L62.4241 17.1034L62.606 16.9319ZM59.561 17.0219L59.7399 17.1965L59.742 17.1943L59.561 17.0219ZM58.961 22.8569V23.1069H59.211V22.8569H58.961ZM57.086 22.8569H56.836V23.1069H57.086V22.8569ZM57.086 14.8469V14.5969H56.836V14.8469H57.086ZM58.871 14.8469H59.121V14.5969H58.871V14.8469ZM58.871 15.8819H58.621V16.5696L59.0626 16.0425L58.871 15.8819ZM60.041 15.0419L60.1347 15.2737L60.041 15.0419ZM61.631 15.0069C62.5893 15.0069 63.3325 15.2851 63.8871 15.8216L64.2348 15.4622C63.5695 14.8187 62.6927 14.5069 61.631 14.5069V15.0069ZM63.8871 15.8216C64.4327 16.3493 64.726 17.1491 64.726 18.2669H65.226C65.226 17.0648 64.9092 16.1146 64.2348 15.4622L63.8871 15.8216ZM64.726 18.2669V22.8569H65.226V18.2669H64.726ZM64.976 22.6069H63.101V23.1069H64.976V22.6069ZM63.351 22.8569V18.5069H62.851V22.8569H63.351ZM63.351 18.5069C63.351 17.7719 63.178 17.1742 62.7879 16.7604L62.4241 17.1034C62.6939 17.3897 62.851 17.8419 62.851 18.5069H63.351ZM62.7902 16.763C62.4016 16.339 61.8573 16.1419 61.196 16.1419V16.6419C61.7546 16.6419 62.1503 16.8049 62.4217 17.1009L62.7902 16.763ZM61.196 16.1419C60.4516 16.1419 59.836 16.3707 59.3799 16.8495L59.742 17.1943C60.0859 16.8332 60.5603 16.6419 61.196 16.6419V16.1419ZM59.382 16.8474C58.922 17.3188 58.711 17.9858 58.711 18.8069H59.211C59.211 18.0681 59.3999 17.545 59.7399 17.1965L59.382 16.8474ZM58.711 18.8069V22.8569H59.211V18.8069H58.711ZM58.961 22.6069H57.086V23.1069H58.961V22.6069ZM57.336 22.8569V14.8469H56.836V22.8569H57.336ZM57.086 15.0969H58.871V14.5969H57.086V15.0969ZM58.621 14.8469V15.8819H59.121V14.8469H58.621ZM59.0626 16.0425C59.3449 15.7055 59.7007 15.4492 60.1347 15.2737L59.9473 14.8102C59.4412 15.0147 59.017 15.3184 58.6793 15.7214L59.0626 16.0425ZM60.1347 15.2737C60.5704 15.0975 61.0679 15.0069 61.631 15.0069V14.5069C61.014 14.5069 60.4515 14.6063 59.9473 14.8102L60.1347 15.2737ZM71.68 12.3569V12.1069H71.43V12.3569H71.68ZM73.63 12.3569H73.88V12.1069H73.63V12.3569ZM73.63 22.8569V23.1069H73.88V22.8569H73.63ZM71.68 22.8569H71.43V23.1069H71.68V22.8569ZM71.68 12.6069H73.63V12.1069H71.68V12.6069ZM73.38 12.3569V22.8569H73.88V12.3569H73.38ZM73.63 22.6069H71.68V23.1069H73.63V22.6069ZM71.93 22.8569V12.3569H71.43V22.8569H71.93ZM83.2651 15.6419L83.4389 15.4622L83.2651 15.6419ZM84.1801 22.8569V23.1069H84.4301V22.8569H84.1801ZM82.3051 22.8569H82.0551V23.1069H82.3051V22.8569ZM81.8101 16.9319L81.6258 17.1009L81.6282 17.1034L81.8101 16.9319ZM78.7651 17.0219L78.944 17.1965L78.9461 17.1943L78.7651 17.0219ZM78.1651 22.8569V23.1069H78.4151V22.8569H78.1651ZM76.2901 22.8569H76.0401V23.1069H76.2901V22.8569ZM76.2901 14.8469V14.5969H76.0401V14.8469H76.2901ZM78.0751 14.8469H78.3251V14.5969H78.0751V14.8469ZM78.0751 15.8819H77.8251V16.5696L78.2667 16.0425L78.0751 15.8819ZM79.2451 15.0419L79.3388 15.2737L79.2451 15.0419ZM80.8351 15.0069C81.7934 15.0069 82.5366 15.2851 83.0913 15.8216L83.4389 15.4622C82.7736 14.8187 81.8968 14.5069 80.8351 14.5069V15.0069ZM83.0913 15.8216C83.6368 16.3493 83.9301 17.1491 83.9301 18.2669H84.4301C84.4301 17.0648 84.1133 16.1146 83.4389 15.4622L83.0913 15.8216ZM83.9301 18.2669V22.8569H84.4301V18.2669H83.9301ZM84.1801 22.6069H82.3051V23.1069H84.1801V22.6069ZM82.5551 22.8569V18.5069H82.0551V22.8569H82.5551ZM82.5551 18.5069C82.5551 17.7719 82.3821 17.1742 81.992 16.7604L81.6282 17.1034C81.898 17.3897 82.0551 17.8419 82.0551 18.5069H82.5551ZM81.9943 16.763C81.6057 16.339 81.0614 16.1419 80.4001 16.1419V16.6419C80.9587 16.6419 81.3544 16.8049 81.6258 17.1009L81.9943 16.763ZM80.4001 16.1419C79.6557 16.1419 79.0401 16.3707 78.584 16.8495L78.9461 17.1943C79.29 16.8332 79.7644 16.6419 80.4001 16.6419V16.1419ZM78.5861 16.8474C78.1261 17.3188 77.9151 17.9858 77.9151 18.8069H78.4151C78.4151 18.0681 78.604 17.545 78.944 17.1965L78.5861 16.8474ZM77.9151 18.8069V22.8569H78.4151V18.8069H77.9151ZM78.1651 22.6069H76.2901V23.1069H78.1651V22.6069ZM76.5401 22.8569V14.8469H76.0401V22.8569H76.5401ZM76.2901 15.0969H78.0751V14.5969H76.2901V15.0969ZM77.8251 14.8469V15.8819H78.3251V14.8469H77.8251ZM78.2667 16.0425C78.549 15.7055 78.9048 15.4492 79.3388 15.2737L79.1514 14.8102C78.6453 15.0147 78.2211 15.3184 77.8834 15.7214L78.2667 16.0425ZM79.3388 15.2737C79.7745 15.0975 80.272 15.0069 80.8351 15.0069V14.5069C80.2181 14.5069 79.6556 14.6063 79.1514 14.8102L79.3388 15.2737Z" fill="#00A2EA"/>
</g>
<defs>
<filter id="filter0_d" x="-4" y="0" width="125" height="43" filterUnits="userSpaceOnUse" color-interpolation-filters="sRGB">
<feFlood flood-opacity="0" result="BackgroundImageFix"/>
<feColorMatrix in="SourceAlpha" type="matrix" values="0 0 0 0 0 0 0 0 0 0 0 0 0 0 0 0 0 0 127 0"/>
<feOffset dy="4"/>
<feGaussianBlur stdDeviation="2"/>
<feColorMatrix type="matrix" values="0 0 0 0 0 0 0 0 0 0 0 0 0 0 0 0 0 0 0.25 0"/>
<feBlend mode="normal" in2="BackgroundImageFix" result="effect1_dropShadow"/>
<feBlend mode="normal" in="SourceGraphic" in2="effect1_dropShadow" result="shape"/>
</filter>
<filter id="filter1_bd" x="4" y="-4" width="106" height="43" filterUnits="userSpaceOnUse" color-interpolation-filters="sRGB">
<feFlood flood-opacity="0" result="BackgroundImageFix"/>
<feGaussianBlur in="BackgroundImage" stdDeviation="2"/>
<feComposite in2="SourceAlpha" operator="in" result="effect1_backgroundBlur"/>
<feColorMatrix in="SourceAlpha" type="matrix" values="0 0 0 0 0 0 0 0 0 0 0 0 0 0 0 0 0 0 127 0"/>
<feOffset dx="4" dy="4"/>
<feColorMatrix type="matrix" values="0 0 0 0 0.0511111 0 0 0 0 0.0716833 0 0 0 0 0.0958333 0 0 0 0.12 0"/>
<feBlend mode="normal" in2="effect1_backgroundBlur" result="effect2_dropShadow"/>
<feBlend mode="normal" in="SourceGraphic" in2="effect2_dropShadow" result="shape"/>
</filter>
</defs>
</svg>
