<svg width="375" height="42" viewBox="0 0 375 42" fill="none" xmlns="http://www.w3.org/2000/svg">
<path fill-rule="evenodd" clip-rule="evenodd" d="M0 0H375V42H0V0Z" fill="#BBC2C9"/>
<path fill-rule="evenodd" clip-rule="evenodd" d="M124 0H125V42H124V0Z" fill="white" fill-opacity="0.36"/>
<path fill-rule="evenodd" clip-rule="evenodd" d="M250 0H251V42H250V0Z" fill="white" fill-opacity="0.36"/>
<path d="M178.45 27V16.054H182.423V14.6697H172.938V16.054H176.912V27H178.45ZM184.446 27H185.916V21.5483C185.916 19.9932 186.822 18.9507 188.471 18.9507C189.864 18.9507 190.599 19.7625 190.599 21.3945V27H192.068V21.0356C192.068 18.8738 190.838 17.6262 188.89 17.6262C187.48 17.6262 186.514 18.2244 186.053 19.2412H185.916V14.1313H184.446V27ZM198.176 18.925C199.637 18.925 200.611 20.0017 200.645 21.6338H195.57C195.681 20.0017 196.706 18.925 198.176 18.925ZM200.603 24.616C200.218 25.4277 199.415 25.8635 198.227 25.8635C196.663 25.8635 195.646 24.71 195.57 22.8899V22.8215H202.192V22.2576C202.192 19.395 200.679 17.6262 198.193 17.6262C195.664 17.6262 194.04 19.5061 194.04 22.4028C194.04 25.3167 195.638 27.1624 198.193 27.1624C200.209 27.1624 201.628 26.1968 202.072 24.616H200.603Z" fill="white"/>
<path d="M63.0034 27V14.6697H61.4653V27H63.0034Z" fill="white"/>
<path d="M304.208 27V14.6697H302.67V27H304.208ZM308.427 19.2754V14.6697H307.06V19.2754H308.427ZM311.091 27H312.561V21.292C312.561 19.9932 313.492 18.9507 314.697 18.9507C315.859 18.9507 316.619 19.6514 316.619 20.7451V27H318.089V21.0784C318.089 19.9077 318.944 18.9507 320.225 18.9507C321.524 18.9507 322.165 19.6172 322.165 20.9758V27H323.635V20.634C323.635 18.7029 322.584 17.6262 320.704 17.6262C319.431 17.6262 318.38 18.2671 317.884 19.2412H317.747C317.32 18.2842 316.448 17.6262 315.201 17.6262C313.97 17.6262 313.048 18.2158 312.629 19.2412H312.492V17.7886H311.091V27Z" fill="white"/>
</svg>
