<svg width="375" height="216" viewBox="0 0 375 216" fill="none" xmlns="http://www.w3.org/2000/svg">
<path fill-rule="evenodd" clip-rule="evenodd" d="M0 0H375V216H0V0Z" fill="#D1D5DB" fill-opacity="0.9"/>
<g filter="url(#filter0_d)">
<path fill-rule="evenodd" clip-rule="evenodd" d="M3.51562 17C3.51562 14.2386 5.7542 12 8.51562 12H28.5156C31.277 12 33.5156 14.2386 33.5156 17V45C33.5156 47.7614 31.277 50 28.5156 50H8.51563C5.7542 50 3.51562 47.7614 3.51562 45V17Z" fill="white"/>
</g>
<path d="M17.7539 25.1445C14.5547 25.1445 12.4688 27.7227 12.4688 31.6836C12.4688 35.668 14.5312 38.2227 17.7539 38.2227C19.5352 38.2227 20.8945 37.4844 21.7031 36.1016H21.8906V42.2188H23.9297V25.3672H21.9844V27.4766H21.7969C21.0469 26.0586 19.4766 25.1445 17.7539 25.1445ZM18.2109 36.4062C15.9141 36.4062 14.5547 34.6484 14.5547 31.6836C14.5547 28.7305 15.9258 26.9609 18.2227 26.9609C20.5078 26.9609 21.9492 28.7891 21.9492 31.6836C21.9492 34.5898 20.5195 36.4062 18.2109 36.4062Z" fill="black"/>
<g filter="url(#filter1_d)">
<path fill-rule="evenodd" clip-rule="evenodd" d="M41.0156 17C41.0156 14.2386 43.2542 12 46.0156 12H66.0156C68.777 12 71.0156 14.2386 71.0156 17V45C71.0156 47.7614 68.777 50 66.0156 50H46.0156C43.2542 50 41.0156 47.7614 41.0156 45V17Z" fill="white"/>
</g>
<path d="M64.5117 25.3672H62.4844L60 35.4688H59.8125L56.9883 25.3672H55.0547L52.2305 35.4688H52.043L49.5586 25.3672H47.5195L51.0586 38H53.0977L55.9102 28.2266H56.0977L58.9219 38H60.9727L64.5117 25.3672Z" fill="black"/>
<g filter="url(#filter2_d)">
<path fill-rule="evenodd" clip-rule="evenodd" d="M78.5156 17C78.5156 14.2386 80.7542 12 83.5156 12H103.516C106.277 12 108.516 14.2386 108.516 17V45C108.516 47.7614 106.277 50 103.516 50H83.5156C80.7542 50 78.5156 47.7614 78.5156 45V17Z" fill="white"/>
</g>
<path d="M93.5977 26.9258C95.6016 26.9258 96.9375 28.4023 96.9844 30.6406H90.0234C90.1758 28.4023 91.582 26.9258 93.5977 26.9258ZM96.9258 34.7305C96.3984 35.8438 95.2969 36.4414 93.668 36.4414C91.5234 36.4414 90.1289 34.8594 90.0234 32.3633V32.2695H99.1055V31.4961C99.1055 27.5703 97.0312 25.1445 93.6211 25.1445C90.1523 25.1445 87.9258 27.7227 87.9258 31.6953C87.9258 35.6914 90.1172 38.2227 93.6211 38.2227C96.3867 38.2227 98.332 36.8984 98.9414 34.7305H96.9258Z" fill="black"/>
<g filter="url(#filter3_d)">
<path fill-rule="evenodd" clip-rule="evenodd" d="M116.016 17C116.016 14.2386 118.254 12 121.016 12H141.016C143.777 12 146.016 14.2386 146.016 17V45C146.016 47.7614 143.777 50 141.016 50H121.016C118.254 50 116.016 47.7614 116.016 45V17Z" fill="white"/>
</g>
<path d="M128.344 38H130.359V30.1719C130.359 28.3906 131.754 27.1016 133.676 27.1016C134.074 27.1016 134.801 27.1719 134.965 27.2188V25.2031C134.707 25.168 134.285 25.1445 133.957 25.1445C132.281 25.1445 130.828 26.0117 130.453 27.2422H130.266V25.3672H128.344V38Z" fill="black"/>
<g filter="url(#filter4_d)">
<path fill-rule="evenodd" clip-rule="evenodd" d="M153.516 17C153.516 14.2386 155.754 12 158.516 12H178.516C181.277 12 183.516 14.2386 183.516 17V45C183.516 47.7614 181.277 50 178.516 50H158.516C155.754 50 153.516 47.7614 153.516 45V17Z" fill="white"/>
</g>
<path d="M166.898 22.0977V25.3672H164.859V27.0547H166.898V34.7188C166.898 37.1328 167.941 38.0938 170.543 38.0938C170.941 38.0938 171.328 38.0469 171.727 37.9766V36.2773C171.352 36.3125 171.152 36.3242 170.789 36.3242C169.477 36.3242 168.914 35.6914 168.914 34.2031V27.0547H171.727V25.3672H168.914V22.0977H166.898Z" fill="black"/>
<g filter="url(#filter5_d)">
<path fill-rule="evenodd" clip-rule="evenodd" d="M191.016 17C191.016 14.2386 193.254 12 196.016 12H216.016C218.777 12 221.016 14.2386 221.016 17V45C221.016 47.7614 218.777 50 216.016 50H196.016C193.254 50 191.016 47.7614 191.016 45V17Z" fill="white"/>
</g>
<path d="M202.477 42.5703C204.715 42.5703 205.723 41.7031 206.801 38.7734L211.734 25.3672H209.59L206.133 35.7617H205.945L202.477 25.3672H200.297L204.973 38.0117L204.738 38.7617C204.211 40.2852 203.578 40.8359 202.418 40.8359C202.137 40.8359 201.82 40.8242 201.574 40.7773V42.5C201.855 42.5469 202.207 42.5703 202.477 42.5703Z" fill="black"/>
<g filter="url(#filter6_d)">
<path fill-rule="evenodd" clip-rule="evenodd" d="M228.516 17C228.516 14.2386 230.754 12 233.516 12H253.516C256.277 12 258.516 14.2386 258.516 17V45C258.516 47.7614 256.277 50 253.516 50H233.516C230.754 50 228.516 47.7614 228.516 45V17Z" fill="white"/>
</g>
<path d="M248.625 25.3672H246.609V32.8438C246.609 35.0586 245.391 36.3828 243.164 36.3828C241.148 36.3828 240.305 35.3281 240.305 33.0547V25.3672H238.289V33.5469C238.289 36.5352 239.766 38.2227 242.602 38.2227C244.535 38.2227 245.883 37.4258 246.516 36.0195H246.703V38H248.625V25.3672Z" fill="black"/>
<g filter="url(#filter7_d)">
<path fill-rule="evenodd" clip-rule="evenodd" d="M266.016 17C266.016 14.2386 268.254 12 271.016 12H291.016C293.777 12 296.016 14.2386 296.016 17V45C296.016 47.7614 293.777 50 291.016 50H271.016C268.254 50 266.016 47.7614 266.016 45V17Z" fill="white"/>
</g>
<path d="M280.008 38H282.023V25.3672H280.008V38ZM281.016 22.8008C281.789 22.8008 282.422 22.168 282.422 21.3945C282.422 20.6211 281.789 19.9883 281.016 19.9883C280.242 19.9883 279.609 20.6211 279.609 21.3945C279.609 22.168 280.242 22.8008 281.016 22.8008Z" fill="black"/>
<g filter="url(#filter8_d)">
<path fill-rule="evenodd" clip-rule="evenodd" d="M303.516 17C303.516 14.2386 305.754 12 308.516 12H328.516C331.277 12 333.516 14.2386 333.516 17V45C333.516 47.7614 331.277 50 328.516 50H308.516C305.754 50 303.516 47.7614 303.516 45V17Z" fill="white"/>
</g>
<path d="M318.516 38.2227C322.113 38.2227 324.34 35.7383 324.34 31.6836C324.34 27.6172 322.113 25.1445 318.516 25.1445C314.918 25.1445 312.691 27.6172 312.691 31.6836C312.691 35.7383 314.918 38.2227 318.516 38.2227ZM318.516 36.4062C316.125 36.4062 314.777 34.6719 314.777 31.6836C314.777 28.6836 316.125 26.9609 318.516 26.9609C320.906 26.9609 322.254 28.6836 322.254 31.6836C322.254 34.6719 320.906 36.4062 318.516 36.4062Z" fill="black"/>
<g filter="url(#filter9_d)">
<path fill-rule="evenodd" clip-rule="evenodd" d="M341.016 17C341.016 14.2386 343.254 12 346.016 12H366.016C368.777 12 371.016 14.2386 371.016 17V45C371.016 47.7614 368.777 50 366.016 50H346.016C343.254 50 341.016 47.7614 341.016 45V17Z" fill="white"/>
</g>
<path d="M356.754 25.1445C355.031 25.1445 353.52 26.0234 352.711 27.4766H352.523V25.3672H350.602V42.2188H352.617V36.1016H352.805C353.496 37.4375 354.949 38.2227 356.754 38.2227C359.965 38.2227 362.062 35.6328 362.062 31.6836C362.062 27.7109 359.977 25.1445 356.754 25.1445ZM356.273 36.4062C354 36.4062 352.559 34.5781 352.559 31.6836C352.559 28.7773 354 26.9609 356.285 26.9609C358.594 26.9609 359.977 28.7305 359.977 31.6836C359.977 34.6367 358.594 36.4062 356.273 36.4062Z" fill="black"/>
<g filter="url(#filter10_d)">
<path fill-rule="evenodd" clip-rule="evenodd" d="M22.2656 71C22.2656 68.2386 24.5042 66 27.2656 66H47.2656C50.027 66 52.2656 68.2386 52.2656 71V99C52.2656 101.761 50.027 104 47.2656 104H27.2656C24.5042 104 22.2656 101.761 22.2656 99V71Z" fill="white"/>
</g>
<path d="M36.4336 90.4531C34.9688 90.4531 33.8789 89.7031 33.8789 88.4141C33.8789 87.1484 34.7227 86.4805 36.6445 86.3516L40.043 86.1289V87.2891C40.043 89.0938 38.5078 90.4531 36.4336 90.4531ZM36.0586 92.2227C37.7461 92.2227 39.1289 91.4844 39.9492 90.1367H40.1367V92H42.0586V83.3516C42.0586 80.7266 40.3359 79.1445 37.2539 79.1445C34.5586 79.1445 32.5664 80.4805 32.2969 82.5078H34.3359C34.6172 81.5117 35.6719 80.9375 37.1836 80.9375C39.0703 80.9375 40.043 81.793 40.043 83.3516V84.5L36.3984 84.7227C33.457 84.8984 31.793 86.1992 31.793 88.4609C31.793 90.7695 33.6094 92.2227 36.0586 92.2227Z" fill="black"/>
<g filter="url(#filter11_d)">
<path fill-rule="evenodd" clip-rule="evenodd" d="M59.7656 71C59.7656 68.2386 62.0042 66 64.7656 66H84.7656C87.527 66 89.7656 68.2386 89.7656 71V99C89.7656 101.761 87.527 104 84.7656 104H64.7656C62.0042 104 59.7656 101.761 59.7656 99V71Z" fill="white"/>
</g>
<path d="M70.0898 82.8242C70.0898 84.6523 71.168 85.6719 73.5352 86.2461L75.7031 86.7734C77.0508 87.1016 77.707 87.6875 77.707 88.5547C77.707 89.7148 76.4883 90.5234 74.7891 90.5234C73.1719 90.5234 72.1641 89.8438 71.8242 88.7773H69.75C69.9727 90.875 71.9062 92.2227 74.7188 92.2227C77.5898 92.2227 79.7812 90.6641 79.7812 88.4023C79.7812 86.5859 78.6328 85.5547 76.2539 84.9805L74.3086 84.5117C72.8203 84.1484 72.1172 83.6094 72.1172 82.7422C72.1172 81.6172 73.2891 80.8555 74.7891 80.8555C76.3125 80.8555 77.2969 81.5234 77.5664 82.5312H79.5586C79.2891 80.457 77.4492 79.1445 74.8008 79.1445C72.1172 79.1445 70.0898 80.7266 70.0898 82.8242Z" fill="black"/>
<g filter="url(#filter12_d)">
<path fill-rule="evenodd" clip-rule="evenodd" d="M97.2656 71C97.2656 68.2386 99.5042 66 102.266 66H122.266C125.027 66 127.266 68.2386 127.266 71V99C127.266 101.761 125.027 104 122.266 104H102.266C99.5042 104 97.2656 101.761 97.2656 99V71Z" fill="white"/>
</g>
<path d="M111.469 92.2227C113.215 92.2227 114.715 91.3906 115.512 89.9844H115.699V92H117.621V74.3516H115.605V81.3594H115.43C114.715 79.9766 113.227 79.1445 111.469 79.1445C108.258 79.1445 106.16 81.7227 106.16 85.6836C106.16 89.6562 108.234 92.2227 111.469 92.2227ZM111.938 80.9609C114.223 80.9609 115.652 82.7891 115.652 85.6836C115.652 88.6016 114.234 90.4062 111.938 90.4062C109.629 90.4062 108.246 88.6367 108.246 85.6836C108.246 82.7422 109.641 80.9609 111.938 80.9609Z" fill="black"/>
<g filter="url(#filter13_d)">
<path fill-rule="evenodd" clip-rule="evenodd" d="M134.766 71C134.766 68.2386 137.004 66 139.766 66H159.766C162.527 66 164.766 68.2386 164.766 71V99C164.766 101.761 162.527 104 159.766 104H139.766C137.004 104 134.766 101.761 134.766 99V71Z" fill="white"/>
</g>
<path d="M148.16 92H150.176V81.0547H153.07V79.3672H150.176V78.0195C150.176 76.6367 150.785 75.9336 152.238 75.9336C152.602 75.9336 152.941 75.9453 153.188 75.9922V74.3516C152.766 74.2695 152.32 74.2344 151.828 74.2344C149.426 74.2344 148.16 75.4414 148.16 77.9609V79.3672H146.062V81.0547H148.16V92Z" fill="black"/>
<g filter="url(#filter14_d)">
<path fill-rule="evenodd" clip-rule="evenodd" d="M172.266 71C172.266 68.2386 174.504 66 177.266 66H197.266C200.027 66 202.266 68.2386 202.266 71V99C202.266 101.761 200.027 104 197.266 104H177.266C174.504 104 172.266 101.761 172.266 99V71Z" fill="white"/>
</g>
<path d="M186.961 90.0312C184.617 90.0312 183.305 88.25 183.305 85.4961C183.305 82.7422 184.617 80.9609 186.961 80.9609C189.293 80.9609 190.711 82.7422 190.711 85.4961C190.711 88.25 189.305 90.0312 186.961 90.0312ZM187.055 96.8516C190.5 96.8516 192.68 95.0469 192.68 92.2227V79.3672H190.758V81.3711H190.57C189.844 80.0117 188.285 79.1445 186.516 79.1445C183.27 79.1445 181.219 81.7109 181.219 85.4961C181.219 89.2812 183.246 91.8125 186.516 91.8125C188.25 91.8125 189.68 91.0273 190.477 89.6328H190.664V92.1172C190.664 93.9805 189.316 95.0938 187.055 95.0938C185.238 95.0938 184.113 94.4258 183.891 93.3945H181.758C182.062 95.4805 184.008 96.8516 187.055 96.8516Z" fill="black"/>
<g filter="url(#filter15_d)">
<path fill-rule="evenodd" clip-rule="evenodd" d="M209.766 71C209.766 68.2386 212.004 66 214.766 66H234.766C237.527 66 239.766 68.2386 239.766 71V99C239.766 101.761 237.527 104 234.766 104H214.766C212.004 104 209.766 101.761 209.766 99V71Z" fill="white"/>
</g>
<path d="M219.656 92H221.672V84.5234C221.672 82.3906 222.914 80.9609 225.176 80.9609C227.086 80.9609 228.094 82.0742 228.094 84.3125V92H230.109V83.8203C230.109 80.8555 228.422 79.1445 225.75 79.1445C223.816 79.1445 222.492 79.9648 221.859 81.3594H221.672V74.3516H219.656V92Z" fill="black"/>
<g filter="url(#filter16_d)">
<path fill-rule="evenodd" clip-rule="evenodd" d="M247.266 71C247.266 68.2386 249.504 66 252.266 66H272.266C275.027 66 277.266 68.2386 277.266 71V99C277.266 101.761 275.027 104 272.266 104H252.266C249.504 104 247.266 101.761 247.266 99V71Z" fill="white"/>
</g>
<path d="M263.273 79.3672H261.258V92.6562C261.258 94.0508 260.789 94.6133 259.359 94.6133H259.055V96.3359H259.406C262.055 96.3359 263.273 95.2227 263.273 92.6211V79.3672ZM262.266 76.8008C263.039 76.8008 263.672 76.168 263.672 75.3945C263.672 74.6211 263.039 73.9883 262.266 73.9883C261.492 73.9883 260.859 74.6211 260.859 75.3945C260.859 76.168 261.492 76.8008 262.266 76.8008Z" fill="black"/>
<g filter="url(#filter17_d)">
<path fill-rule="evenodd" clip-rule="evenodd" d="M284.766 71C284.766 68.2386 287.004 66 289.766 66H309.766C312.527 66 314.766 68.2386 314.766 71V99C314.766 101.761 312.527 104 309.766 104H289.766C287.004 104 284.766 101.761 284.766 99V71Z" fill="white"/>
</g>
<path d="M297.469 84.8867H297.281V74.3516H295.266V92H297.281V87.207L298.488 86.082L303.223 92H305.789L299.988 84.7812L305.426 79.3672H302.953L297.469 84.8867Z" fill="black"/>
<g filter="url(#filter18_d)">
<path fill-rule="evenodd" clip-rule="evenodd" d="M322.266 71C322.266 68.2386 324.504 66 327.266 66H347.266C350.027 66 352.266 68.2386 352.266 71V99C352.266 101.761 350.027 104 347.266 104H327.266C324.504 104 322.266 101.761 322.266 99V71Z" fill="white"/>
</g>
<path d="M336.258 92H338.273V74.3516H336.258V92Z" fill="black"/>
<g filter="url(#filter19_d)">
<path fill-rule="evenodd" clip-rule="evenodd" d="M59.7656 125C59.7656 122.239 62.0042 120 64.7656 120H84.7656C87.527 120 89.7656 122.239 89.7656 125V153C89.7656 155.761 87.527 158 84.7656 158H64.7656C62.0042 158 59.7656 155.761 59.7656 153V125Z" fill="white"/>
</g>
<path d="M69.9023 146H79.6289V144.312H72.3398V144.125L79.5938 134.879V133.367H69.9141V135.055H77.1914V135.242L69.9023 144.523V146Z" fill="black"/>
<g filter="url(#filter20_d)">
<path fill-rule="evenodd" clip-rule="evenodd" d="M97.2656 125C97.2656 122.239 99.5042 120 102.266 120H122.266C125.027 120 127.266 122.239 127.266 125V153C127.266 155.761 125.027 158 122.266 158H102.266C99.5042 158 97.2656 155.761 97.2656 153V125Z" fill="white"/>
</g>
<path d="M112.336 141.23L115.324 146H117.715L113.367 139.602L117.656 133.367H115.371L112.406 138.066H112.219L109.219 133.367H106.816L111.188 139.684L106.863 146H109.148L112.148 141.23H112.336Z" fill="black"/>
<g filter="url(#filter21_d)">
<path fill-rule="evenodd" clip-rule="evenodd" d="M134.766 125C134.766 122.239 137.004 120 139.766 120H159.766C162.527 120 164.766 122.239 164.766 125V153C164.766 155.761 162.527 158 159.766 158H139.766C137.004 158 134.766 155.761 134.766 153V125Z" fill="white"/>
</g>
<path d="M155.402 137.234C155.051 134.984 153.176 133.145 150.105 133.145C146.566 133.145 144.316 135.699 144.316 139.637C144.316 143.656 146.578 146.223 150.117 146.223C153.152 146.223 155.039 144.512 155.402 142.191H153.363C152.988 143.621 151.805 144.406 150.105 144.406C147.855 144.406 146.402 142.555 146.402 139.637C146.402 136.777 147.832 134.961 150.105 134.961C151.922 134.961 153.035 135.98 153.363 137.234H155.402Z" fill="black"/>
<g filter="url(#filter22_d)">
<path fill-rule="evenodd" clip-rule="evenodd" d="M172.266 125C172.266 122.239 174.504 120 177.266 120H197.266C200.027 120 202.266 122.239 202.266 125V153C202.266 155.761 200.027 158 197.266 158H177.266C174.504 158 172.266 155.761 172.266 153V125Z" fill="white"/>
</g>
<path d="M192.973 133.367H190.816L187.359 143.773H187.172L183.715 133.367H181.559L186.234 146H188.297L192.973 133.367Z" fill="black"/>
<g filter="url(#filter23_d)">
<path fill-rule="evenodd" clip-rule="evenodd" d="M209.766 125C209.766 122.239 212.004 120 214.766 120H234.766C237.527 120 239.766 122.239 239.766 125V153C239.766 155.761 237.527 158 234.766 158H214.766C212.004 158 209.766 155.761 209.766 153V125Z" fill="white"/>
</g>
<path d="M225.574 146.223C228.773 146.223 230.871 143.633 230.871 139.684C230.871 135.711 228.785 133.145 225.574 133.145C223.84 133.145 222.305 134 221.613 135.359H221.426V128.352H219.41V146H221.332V143.984H221.52C222.316 145.391 223.816 146.223 225.574 146.223ZM225.105 134.961C227.414 134.961 228.785 136.73 228.785 139.684C228.785 142.637 227.414 144.406 225.105 144.406C222.809 144.406 221.379 142.602 221.379 139.684C221.379 136.766 222.809 134.961 225.105 134.961Z" fill="black"/>
<g filter="url(#filter24_d)">
<path fill-rule="evenodd" clip-rule="evenodd" d="M247.266 125C247.266 122.239 249.504 120 252.266 120H272.266C275.027 120 277.266 122.239 277.266 125V153C277.266 155.761 275.027 158 272.266 158H252.266C249.504 158 247.266 155.761 247.266 153V125Z" fill="white"/>
</g>
<path d="M257.156 146H259.172V138.523C259.172 136.309 260.473 134.961 262.488 134.961C264.504 134.961 265.465 136.039 265.465 138.312V146H267.48V137.82C267.48 134.82 265.898 133.145 263.062 133.145C261.129 133.145 259.898 133.965 259.266 135.359H259.078V133.367H257.156V146Z" fill="black"/>
<g filter="url(#filter25_d)">
<path fill-rule="evenodd" clip-rule="evenodd" d="M284.766 125C284.766 122.239 287.004 120 289.766 120H309.766C312.527 120 314.766 122.239 314.766 125V153C314.766 155.761 312.527 158 309.766 158H289.766C287.004 158 284.766 155.761 284.766 153V125Z" fill="white"/>
</g>
<path d="M291.223 146H293.238V138.172C293.238 136.391 294.516 134.961 296.168 134.961C297.762 134.961 298.805 135.922 298.805 137.422V146H300.82V137.879C300.82 136.273 301.992 134.961 303.75 134.961C305.531 134.961 306.41 135.875 306.41 137.738V146H308.426V137.27C308.426 134.621 306.984 133.145 304.406 133.145C302.66 133.145 301.219 134.023 300.539 135.359H300.352C299.766 134.047 298.57 133.145 296.859 133.145C295.172 133.145 293.906 133.953 293.332 135.359H293.145V133.367H291.223V146Z" fill="black"/>
<g filter="url(#filter26_d)">
<path fill-rule="evenodd" clip-rule="evenodd" d="M97.2656 179C97.2656 176.239 99.5042 174 102.266 174H122.266C125.027 174 127.266 176.239 127.266 179V207C127.266 209.761 125.027 212 122.266 212H102.266C99.5042 212 97.2656 209.761 97.2656 207V179Z" fill="white"/>
</g>
<path fill-rule="evenodd" clip-rule="evenodd" d="M108.766 186.497C108.766 184.565 110.337 183 112.266 183C114.199 183 115.766 184.565 115.766 186.497V193.503C115.766 195.435 114.195 197 112.266 197C110.333 197 108.766 195.435 108.766 193.503V186.497ZM110.266 186.497V193.503C110.266 194.606 111.161 195.5 112.266 195.5C113.368 195.5 114.266 194.604 114.266 193.503V186.497C114.266 185.394 113.371 184.5 112.266 184.5C111.163 184.5 110.266 185.396 110.266 186.497Z" fill="black"/>
<path d="M108.266 202.25C108.266 201.836 108.601 201.5 109.016 201.5H111.516V199.454C108.683 199.1 106.463 196.771 106.278 193.887C106.271 193.851 106.267 193.814 106.266 193.777L106.266 193.75V191.25C106.266 190.836 106.601 190.5 107.016 190.5C107.43 190.5 107.766 190.836 107.766 191.25V193.497C107.766 195.984 109.78 198 112.266 198C114.751 198 116.766 195.984 116.766 193.497V191.25C116.766 190.836 117.101 190.5 117.516 190.5C117.93 190.5 118.266 190.836 118.266 191.25V193.75C118.266 193.797 118.261 193.843 118.253 193.887C118.068 196.77 115.849 199.1 113.016 199.454V201.5H115.516C115.93 201.5 116.266 201.836 116.266 202.25C116.266 202.664 115.93 203 115.516 203H109.016C108.601 203 108.266 202.664 108.266 202.25Z" fill="black"/>
<g filter="url(#filter27_d)">
<path fill-rule="evenodd" clip-rule="evenodd" d="M134.766 179C134.766 176.239 137.004 174 139.766 174H272.766C275.527 174 277.766 176.239 277.766 179V207C277.766 209.761 275.527 212 272.766 212H139.766C137.004 212 134.766 209.761 134.766 207V179Z" fill="white"/>
</g>
<path d="M186.062 191.883C186.062 193.102 186.781 193.781 188.359 194.164L189.805 194.516C190.703 194.734 191.141 195.125 191.141 195.703C191.141 196.477 190.328 197.016 189.195 197.016C188.117 197.016 187.445 196.562 187.219 195.852H185.836C185.984 197.25 187.273 198.148 189.148 198.148C191.062 198.148 192.523 197.109 192.523 195.602C192.523 194.391 191.758 193.703 190.172 193.32L188.875 193.008C187.883 192.766 187.414 192.406 187.414 191.828C187.414 191.078 188.195 190.57 189.195 190.57C190.211 190.57 190.867 191.016 191.047 191.688H192.375C192.195 190.305 190.969 189.43 189.203 189.43C187.414 189.43 186.062 190.484 186.062 191.883ZM198.234 189.43C197.086 189.43 196.078 190.016 195.539 190.984H195.414V189.578H194.133V200.812H195.477V196.734H195.602C196.062 197.625 197.031 198.148 198.234 198.148C200.375 198.148 201.773 196.422 201.773 193.789C201.773 191.141 200.383 189.43 198.234 189.43ZM197.914 196.938C196.398 196.938 195.438 195.719 195.438 193.789C195.438 191.852 196.398 190.641 197.922 190.641C199.461 190.641 200.383 191.82 200.383 193.789C200.383 195.758 199.461 196.938 197.914 196.938ZM205.977 196.969C205 196.969 204.273 196.469 204.273 195.609C204.273 194.766 204.836 194.32 206.117 194.234L208.383 194.086V194.859C208.383 196.062 207.359 196.969 205.977 196.969ZM205.727 198.148C206.852 198.148 207.773 197.656 208.32 196.758H208.445V198H209.727V192.234C209.727 190.484 208.578 189.43 206.523 189.43C204.727 189.43 203.398 190.32 203.219 191.672H204.578C204.766 191.008 205.469 190.625 206.477 190.625C207.734 190.625 208.383 191.195 208.383 192.234V193L205.953 193.148C203.992 193.266 202.883 194.133 202.883 195.641C202.883 197.18 204.094 198.148 205.727 198.148ZM218.68 192.156C218.445 190.656 217.195 189.43 215.148 189.43C212.789 189.43 211.289 191.133 211.289 193.758C211.289 196.438 212.797 198.148 215.156 198.148C217.18 198.148 218.438 197.008 218.68 195.461H217.32C217.07 196.414 216.281 196.938 215.148 196.938C213.648 196.938 212.68 195.703 212.68 193.758C212.68 191.852 213.633 190.641 215.148 190.641C216.359 190.641 217.102 191.32 217.32 192.156H218.68ZM223.523 190.617C224.859 190.617 225.75 191.602 225.781 193.094H221.141C221.242 191.602 222.18 190.617 223.523 190.617ZM225.742 195.82C225.391 196.562 224.656 196.961 223.57 196.961C222.141 196.961 221.211 195.906 221.141 194.242V194.18H227.195V193.664C227.195 191.047 225.812 189.43 223.539 189.43C221.227 189.43 219.742 191.148 219.742 193.797C219.742 196.461 221.203 198.148 223.539 198.148C225.383 198.148 226.68 197.266 227.086 195.82H225.742Z" fill="black"/>
<g filter="url(#filter28_d)">
<path fill-rule="evenodd" clip-rule="evenodd" d="M329.297 125C329.297 122.239 331.535 120 334.297 120H366.484C369.246 120 371.484 122.239 371.484 125V153C371.484 155.761 369.246 158 366.484 158H334.297C331.535 158 329.297 155.761 329.297 153V125Z" fill="#ACB4BE"/>
</g>
<path fill-rule="evenodd" clip-rule="evenodd" d="M341.508 135.3C339.061 137.645 338.297 138.487 338.297 139.5C338.297 140.512 339.061 141.355 341.504 143.697C341.63 143.818 341.759 143.941 341.891 144.065C342.176 144.335 342.468 144.609 342.766 144.885C343.193 145.28 343.629 145.679 344.066 146.073C344.325 146.307 344.566 146.522 344.782 146.715L344.919 146.837L345.056 146.958C345.735 147.565 346.877 148 347.799 148H357.295C359.227 148 360.797 146.434 360.797 144.501V134.499C360.797 132.568 359.228 131 357.295 131H347.799C346.875 131 345.743 131.43 345.056 132.042L345.044 132.053C344.996 132.095 344.907 132.173 344.788 132.28C344.572 132.472 344.331 132.688 344.072 132.922C343.33 133.592 342.588 134.274 341.894 134.931L341.716 135.101L341.508 135.3ZM346.048 145.833C346.048 145.833 339.797 140.327 339.797 139.5C339.797 138.673 346.054 133.162 346.054 133.162C346.464 132.796 347.242 132.5 347.799 132.5H357.295C358.401 132.5 359.297 133.397 359.297 134.499V144.501C359.297 145.605 358.398 146.5 357.295 146.5H347.799C347.245 146.5 346.459 146.2 346.048 145.833Z" fill="black"/>
<path d="M348.827 137.091C348.534 136.798 348.534 136.323 348.827 136.03C349.12 135.738 349.595 135.738 349.888 136.03L355.898 142.041C356.191 142.334 356.191 142.809 355.898 143.102C355.605 143.394 355.131 143.394 354.838 143.102L348.827 137.091Z" fill="black"/>
<path d="M354.838 136.03C355.131 135.737 355.606 135.737 355.898 136.03C356.191 136.323 356.191 136.798 355.898 137.091L349.888 143.101C349.595 143.394 349.12 143.394 348.827 143.101C348.535 142.809 348.535 142.334 348.827 142.041L354.838 136.03Z" fill="black"/>
<g filter="url(#filter29_d)">
<path fill-rule="evenodd" clip-rule="evenodd" d="M3.51562 125C3.51562 122.239 5.7542 120 8.51562 120H40.7031C43.4646 120 45.7031 122.239 45.7031 125V153C45.7031 155.761 43.4646 158 40.7031 158H8.51563C5.7542 158 3.51562 155.761 3.51562 153V125Z" fill="#ACB4BE"/>
</g>
<path d="M34.9831 140.402C35.087 140.958 34.9508 141.296 34.4455 141.473H29.0156V146.904C29.0156 147.453 28.5685 147.898 28.0171 147.898H21.5156C20.9642 147.898 20.5171 147.453 20.5171 146.904V141.473H15.0863C14.5837 141.265 14.4429 140.929 14.5486 140.402L24.2281 130.764C24.7657 130.259 25.2174 130.295 25.8414 130.764L34.9831 140.402Z" stroke="black" stroke-width="1.5"/>
<g filter="url(#filter30_d)">
<path fill-rule="evenodd" clip-rule="evenodd" d="M3.51562 179C3.51562 176.239 5.7542 174 8.51563 174H38.3594C41.1208 174 43.3594 176.239 43.3594 179V207C43.3594 209.761 41.1208 212 38.3594 212H8.51562C5.7542 212 3.51562 209.761 3.51562 207V179Z" fill="#ACB4BE"/>
</g>
<path d="M14.8328 199H16.2391V187.727H14.8406L11.8406 189.883V191.367L14.7078 189.289H14.8328V199ZM19.2359 190.898V190.906H20.5953V190.898C20.5953 189.57 21.4859 188.688 22.8062 188.688C24.0484 188.688 25.0094 189.555 25.0094 190.68C25.0094 191.586 24.6578 192.195 23.2047 193.773L19.3062 198.031V199H26.6031V197.734H21.3219V197.609L24.0328 194.695C25.8844 192.711 26.4156 191.797 26.4156 190.625C26.4156 188.836 24.8687 187.461 22.8453 187.461C20.7516 187.461 19.2359 188.898 19.2359 190.898ZM30.9828 193.805H32.4125C34.0141 193.805 35.0062 194.617 35.0062 195.922C35.0062 197.156 33.9516 198.039 32.4672 198.039C31.0141 198.039 29.9984 197.266 29.8734 196.062H28.5141C28.6156 197.992 30.1937 199.266 32.4828 199.266C34.7094 199.266 36.4516 197.82 36.4516 195.961C36.4516 194.422 35.5219 193.359 33.9906 193.164V193.039C35.225 192.742 35.9672 191.758 35.9672 190.414C35.9672 188.773 34.3969 187.461 32.4281 187.461C30.2797 187.461 28.8812 188.664 28.7406 190.617H30.1078C30.225 189.406 31.0766 188.688 32.3734 188.688C33.6703 188.688 34.5375 189.453 34.5375 190.602C34.5375 191.773 33.6312 192.602 32.35 192.602H30.9828V193.805Z" fill="black"/>
<g filter="url(#filter31_d)">
<path fill-rule="evenodd" clip-rule="evenodd" d="M50.3906 179C50.3906 176.239 52.6292 174 55.3906 174H85.2344C87.9958 174 90.2344 176.239 90.2344 179V207C90.2344 209.761 87.9958 212 85.2344 212H55.3906C52.6292 212 50.3906 209.761 50.3906 207V179Z" fill="#ACB4BE"/>
</g>
<path d="M69.3906 190.75C69.3906 191.44 68.8311 192 68.1406 192C67.4502 192 66.8906 191.44 66.8906 190.75C66.8906 190.06 67.4502 189.5 68.1406 189.5C68.8311 189.5 69.3906 190.06 69.3906 190.75Z" fill="black"/>
<path fill-rule="evenodd" clip-rule="evenodd" d="M77.8906 195C77.8906 197.022 74.8687 200.5 71.1406 200.5C67.4126 200.5 64.3906 197.076 64.3906 195C64.3906 193.826 65.4956 194.072 67.1938 194.45C68.3037 194.697 69.667 195 71.1406 195C72.6143 195 73.9775 194.702 75.0874 194.46C76.7856 194.09 77.8906 193.849 77.8906 195ZM66.6011 195.256C66.26 195.146 65.8906 195.398 65.8906 195.757V195.843C65.8906 195.917 65.907 195.989 65.9429 196.051C65.9568 196.074 65.9736 196.097 65.9937 196.117C66.3433 196.47 67.665 197.5 71.1855 197.5C74.7222 197.5 75.9778 196.46 76.2991 196.112C76.3638 196.042 76.3906 195.949 76.3906 195.854V195.789C76.3906 195.422 76.0034 195.166 75.6562 195.284C74.7876 195.58 73.209 196 71.2539 196C69.2354 196 67.5173 195.552 66.6011 195.256Z" fill="black"/>
<path d="M74.1406 192C74.8311 192 75.3906 191.44 75.3906 190.75C75.3906 190.06 74.8311 189.5 74.1406 189.5C73.4502 189.5 72.8906 190.06 72.8906 190.75C72.8906 191.44 73.4502 192 74.1406 192Z" fill="black"/>
<path fill-rule="evenodd" clip-rule="evenodd" d="M71.1406 203.5C65.7559 203.5 61.3906 199.135 61.3906 193.75C61.3906 188.365 65.7559 184 71.1406 184C76.5254 184 80.8906 188.365 80.8906 193.75C80.8906 199.135 76.5254 203.5 71.1406 203.5ZM71.1406 202.5C75.9731 202.5 79.8906 198.583 79.8906 193.75C79.8906 188.917 75.9731 185 71.1406 185C66.3081 185 62.3906 188.917 62.3906 193.75C62.3906 198.583 66.3081 202.5 71.1406 202.5Z" fill="black"/>
<g filter="url(#filter32_d)">
<path fill-rule="evenodd" clip-rule="evenodd" d="M284.766 179C284.766 176.239 287.004 174 289.766 174H366.484C369.246 174 371.484 176.239 371.484 179V207C371.484 209.761 369.246 212 366.484 212H289.766C287.004 212 284.766 209.761 284.766 207V179Z" fill="#ACB4BE"/>
</g>
<path d="M308.156 197H309.5V191.781C309.5 190.594 310.43 189.734 311.711 189.734C311.977 189.734 312.461 189.781 312.57 189.812V188.469C312.398 188.445 312.117 188.43 311.898 188.43C310.781 188.43 309.812 189.008 309.562 189.828H309.438V188.578H308.156V197ZM316.875 189.617C318.211 189.617 319.102 190.602 319.133 192.094H314.492C314.594 190.602 315.531 189.617 316.875 189.617ZM319.094 194.82C318.742 195.562 318.008 195.961 316.922 195.961C315.492 195.961 314.562 194.906 314.492 193.242V193.18H320.547V192.664C320.547 190.047 319.164 188.43 316.891 188.43C314.578 188.43 313.094 190.148 313.094 192.797C313.094 195.461 314.555 197.148 316.891 197.148C318.734 197.148 320.031 196.266 320.438 194.82H319.094ZM322.719 186.398V188.578H321.359V189.703H322.719V194.812C322.719 196.422 323.414 197.062 325.148 197.062C325.414 197.062 325.672 197.031 325.938 196.984V195.852C325.688 195.875 325.555 195.883 325.312 195.883C324.438 195.883 324.062 195.461 324.062 194.469V189.703H325.938V188.578H324.062V186.398H322.719ZM334.281 188.578H332.938V193.562C332.938 195.039 332.125 195.922 330.641 195.922C329.297 195.922 328.734 195.219 328.734 193.703V188.578H327.391V194.031C327.391 196.023 328.375 197.148 330.266 197.148C331.555 197.148 332.453 196.617 332.875 195.68H333V197H334.281V188.578ZM336.312 197H337.656V191.781C337.656 190.594 338.586 189.734 339.867 189.734C340.133 189.734 340.617 189.781 340.727 189.812V188.469C340.555 188.445 340.273 188.43 340.055 188.43C338.938 188.43 337.969 189.008 337.719 189.828H337.594V188.578H336.312V197ZM342.062 197H343.406V192.016C343.406 190.539 344.273 189.641 345.617 189.641C346.961 189.641 347.602 190.359 347.602 191.875V197H348.945V191.547C348.945 189.547 347.891 188.43 346 188.43C344.711 188.43 343.891 188.977 343.469 189.906H343.344V188.578H342.062V197Z" fill="black"/>
<g filter="url(#filter33_d)">
<path fill-rule="evenodd" clip-rule="evenodd" d="M283 179C283 176.239 285.239 174 288 174H367C369.761 174 372 176.239 372 179V207C372 209.761 369.761 212 367 212H288C285.239 212 283 209.761 283 207V179Z" fill="#007AFF"/>
</g>
<path d="M328.195 192.641V191.266H323.625V192.5H326.797V192.773C326.797 194.68 325.43 195.969 323.414 195.969C321.148 195.969 319.742 194.203 319.742 191.359C319.742 188.555 321.172 186.758 323.406 186.758C325.078 186.758 326.211 187.562 326.695 189.086H328.125C327.719 186.852 325.906 185.461 323.406 185.461C320.32 185.461 318.297 187.797 318.297 191.359C318.297 194.969 320.289 197.266 323.406 197.266C326.289 197.266 328.195 195.422 328.195 192.641ZM333.477 197.148C335.875 197.148 337.359 195.492 337.359 192.789C337.359 190.078 335.875 188.43 333.477 188.43C331.078 188.43 329.594 190.078 329.594 192.789C329.594 195.492 331.078 197.148 333.477 197.148ZM333.477 195.938C331.883 195.938 330.984 194.781 330.984 192.789C330.984 190.789 331.883 189.641 333.477 189.641C335.07 189.641 335.969 190.789 335.969 192.789C335.969 194.781 335.07 195.938 333.477 195.938Z" fill="white"/>
<defs>
<filter id="filter0_d" x="3.51562" y="12" width="30" height="39" filterUnits="userSpaceOnUse" color-interpolation-filters="sRGB">
<feFlood flood-opacity="0" result="BackgroundImageFix"/>
<feColorMatrix in="SourceAlpha" type="matrix" values="0 0 0 0 0 0 0 0 0 0 0 0 0 0 0 0 0 0 127 0"/>
<feOffset dy="1"/>
<feColorMatrix type="matrix" values="0 0 0 0 0 0 0 0 0 0 0 0 0 0 0 0 0 0 0.4 0"/>
<feBlend mode="normal" in2="BackgroundImageFix" result="effect1_dropShadow"/>
<feBlend mode="normal" in="SourceGraphic" in2="effect1_dropShadow" result="shape"/>
</filter>
<filter id="filter1_d" x="41.0156" y="12" width="30" height="39" filterUnits="userSpaceOnUse" color-interpolation-filters="sRGB">
<feFlood flood-opacity="0" result="BackgroundImageFix"/>
<feColorMatrix in="SourceAlpha" type="matrix" values="0 0 0 0 0 0 0 0 0 0 0 0 0 0 0 0 0 0 127 0"/>
<feOffset dy="1"/>
<feColorMatrix type="matrix" values="0 0 0 0 0 0 0 0 0 0 0 0 0 0 0 0 0 0 0.4 0"/>
<feBlend mode="normal" in2="BackgroundImageFix" result="effect1_dropShadow"/>
<feBlend mode="normal" in="SourceGraphic" in2="effect1_dropShadow" result="shape"/>
</filter>
<filter id="filter2_d" x="78.5156" y="12" width="30" height="39" filterUnits="userSpaceOnUse" color-interpolation-filters="sRGB">
<feFlood flood-opacity="0" result="BackgroundImageFix"/>
<feColorMatrix in="SourceAlpha" type="matrix" values="0 0 0 0 0 0 0 0 0 0 0 0 0 0 0 0 0 0 127 0"/>
<feOffset dy="1"/>
<feColorMatrix type="matrix" values="0 0 0 0 0 0 0 0 0 0 0 0 0 0 0 0 0 0 0.4 0"/>
<feBlend mode="normal" in2="BackgroundImageFix" result="effect1_dropShadow"/>
<feBlend mode="normal" in="SourceGraphic" in2="effect1_dropShadow" result="shape"/>
</filter>
<filter id="filter3_d" x="116.016" y="12" width="30" height="39" filterUnits="userSpaceOnUse" color-interpolation-filters="sRGB">
<feFlood flood-opacity="0" result="BackgroundImageFix"/>
<feColorMatrix in="SourceAlpha" type="matrix" values="0 0 0 0 0 0 0 0 0 0 0 0 0 0 0 0 0 0 127 0"/>
<feOffset dy="1"/>
<feColorMatrix type="matrix" values="0 0 0 0 0 0 0 0 0 0 0 0 0 0 0 0 0 0 0.4 0"/>
<feBlend mode="normal" in2="BackgroundImageFix" result="effect1_dropShadow"/>
<feBlend mode="normal" in="SourceGraphic" in2="effect1_dropShadow" result="shape"/>
</filter>
<filter id="filter4_d" x="153.516" y="12" width="30" height="39" filterUnits="userSpaceOnUse" color-interpolation-filters="sRGB">
<feFlood flood-opacity="0" result="BackgroundImageFix"/>
<feColorMatrix in="SourceAlpha" type="matrix" values="0 0 0 0 0 0 0 0 0 0 0 0 0 0 0 0 0 0 127 0"/>
<feOffset dy="1"/>
<feColorMatrix type="matrix" values="0 0 0 0 0 0 0 0 0 0 0 0 0 0 0 0 0 0 0.4 0"/>
<feBlend mode="normal" in2="BackgroundImageFix" result="effect1_dropShadow"/>
<feBlend mode="normal" in="SourceGraphic" in2="effect1_dropShadow" result="shape"/>
</filter>
<filter id="filter5_d" x="191.016" y="12" width="30" height="39" filterUnits="userSpaceOnUse" color-interpolation-filters="sRGB">
<feFlood flood-opacity="0" result="BackgroundImageFix"/>
<feColorMatrix in="SourceAlpha" type="matrix" values="0 0 0 0 0 0 0 0 0 0 0 0 0 0 0 0 0 0 127 0"/>
<feOffset dy="1"/>
<feColorMatrix type="matrix" values="0 0 0 0 0 0 0 0 0 0 0 0 0 0 0 0 0 0 0.4 0"/>
<feBlend mode="normal" in2="BackgroundImageFix" result="effect1_dropShadow"/>
<feBlend mode="normal" in="SourceGraphic" in2="effect1_dropShadow" result="shape"/>
</filter>
<filter id="filter6_d" x="228.516" y="12" width="30" height="39" filterUnits="userSpaceOnUse" color-interpolation-filters="sRGB">
<feFlood flood-opacity="0" result="BackgroundImageFix"/>
<feColorMatrix in="SourceAlpha" type="matrix" values="0 0 0 0 0 0 0 0 0 0 0 0 0 0 0 0 0 0 127 0"/>
<feOffset dy="1"/>
<feColorMatrix type="matrix" values="0 0 0 0 0 0 0 0 0 0 0 0 0 0 0 0 0 0 0.4 0"/>
<feBlend mode="normal" in2="BackgroundImageFix" result="effect1_dropShadow"/>
<feBlend mode="normal" in="SourceGraphic" in2="effect1_dropShadow" result="shape"/>
</filter>
<filter id="filter7_d" x="266.016" y="12" width="30" height="39" filterUnits="userSpaceOnUse" color-interpolation-filters="sRGB">
<feFlood flood-opacity="0" result="BackgroundImageFix"/>
<feColorMatrix in="SourceAlpha" type="matrix" values="0 0 0 0 0 0 0 0 0 0 0 0 0 0 0 0 0 0 127 0"/>
<feOffset dy="1"/>
<feColorMatrix type="matrix" values="0 0 0 0 0 0 0 0 0 0 0 0 0 0 0 0 0 0 0.4 0"/>
<feBlend mode="normal" in2="BackgroundImageFix" result="effect1_dropShadow"/>
<feBlend mode="normal" in="SourceGraphic" in2="effect1_dropShadow" result="shape"/>
</filter>
<filter id="filter8_d" x="303.516" y="12" width="30" height="39" filterUnits="userSpaceOnUse" color-interpolation-filters="sRGB">
<feFlood flood-opacity="0" result="BackgroundImageFix"/>
<feColorMatrix in="SourceAlpha" type="matrix" values="0 0 0 0 0 0 0 0 0 0 0 0 0 0 0 0 0 0 127 0"/>
<feOffset dy="1"/>
<feColorMatrix type="matrix" values="0 0 0 0 0 0 0 0 0 0 0 0 0 0 0 0 0 0 0.4 0"/>
<feBlend mode="normal" in2="BackgroundImageFix" result="effect1_dropShadow"/>
<feBlend mode="normal" in="SourceGraphic" in2="effect1_dropShadow" result="shape"/>
</filter>
<filter id="filter9_d" x="341.016" y="12" width="30" height="39" filterUnits="userSpaceOnUse" color-interpolation-filters="sRGB">
<feFlood flood-opacity="0" result="BackgroundImageFix"/>
<feColorMatrix in="SourceAlpha" type="matrix" values="0 0 0 0 0 0 0 0 0 0 0 0 0 0 0 0 0 0 127 0"/>
<feOffset dy="1"/>
<feColorMatrix type="matrix" values="0 0 0 0 0 0 0 0 0 0 0 0 0 0 0 0 0 0 0.4 0"/>
<feBlend mode="normal" in2="BackgroundImageFix" result="effect1_dropShadow"/>
<feBlend mode="normal" in="SourceGraphic" in2="effect1_dropShadow" result="shape"/>
</filter>
<filter id="filter10_d" x="22.2656" y="66" width="30" height="39" filterUnits="userSpaceOnUse" color-interpolation-filters="sRGB">
<feFlood flood-opacity="0" result="BackgroundImageFix"/>
<feColorMatrix in="SourceAlpha" type="matrix" values="0 0 0 0 0 0 0 0 0 0 0 0 0 0 0 0 0 0 127 0"/>
<feOffset dy="1"/>
<feColorMatrix type="matrix" values="0 0 0 0 0 0 0 0 0 0 0 0 0 0 0 0 0 0 0.4 0"/>
<feBlend mode="normal" in2="BackgroundImageFix" result="effect1_dropShadow"/>
<feBlend mode="normal" in="SourceGraphic" in2="effect1_dropShadow" result="shape"/>
</filter>
<filter id="filter11_d" x="59.7656" y="66" width="30" height="39" filterUnits="userSpaceOnUse" color-interpolation-filters="sRGB">
<feFlood flood-opacity="0" result="BackgroundImageFix"/>
<feColorMatrix in="SourceAlpha" type="matrix" values="0 0 0 0 0 0 0 0 0 0 0 0 0 0 0 0 0 0 127 0"/>
<feOffset dy="1"/>
<feColorMatrix type="matrix" values="0 0 0 0 0 0 0 0 0 0 0 0 0 0 0 0 0 0 0.4 0"/>
<feBlend mode="normal" in2="BackgroundImageFix" result="effect1_dropShadow"/>
<feBlend mode="normal" in="SourceGraphic" in2="effect1_dropShadow" result="shape"/>
</filter>
<filter id="filter12_d" x="97.2656" y="66" width="30" height="39" filterUnits="userSpaceOnUse" color-interpolation-filters="sRGB">
<feFlood flood-opacity="0" result="BackgroundImageFix"/>
<feColorMatrix in="SourceAlpha" type="matrix" values="0 0 0 0 0 0 0 0 0 0 0 0 0 0 0 0 0 0 127 0"/>
<feOffset dy="1"/>
<feColorMatrix type="matrix" values="0 0 0 0 0 0 0 0 0 0 0 0 0 0 0 0 0 0 0.4 0"/>
<feBlend mode="normal" in2="BackgroundImageFix" result="effect1_dropShadow"/>
<feBlend mode="normal" in="SourceGraphic" in2="effect1_dropShadow" result="shape"/>
</filter>
<filter id="filter13_d" x="134.766" y="66" width="30" height="39" filterUnits="userSpaceOnUse" color-interpolation-filters="sRGB">
<feFlood flood-opacity="0" result="BackgroundImageFix"/>
<feColorMatrix in="SourceAlpha" type="matrix" values="0 0 0 0 0 0 0 0 0 0 0 0 0 0 0 0 0 0 127 0"/>
<feOffset dy="1"/>
<feColorMatrix type="matrix" values="0 0 0 0 0 0 0 0 0 0 0 0 0 0 0 0 0 0 0.4 0"/>
<feBlend mode="normal" in2="BackgroundImageFix" result="effect1_dropShadow"/>
<feBlend mode="normal" in="SourceGraphic" in2="effect1_dropShadow" result="shape"/>
</filter>
<filter id="filter14_d" x="172.266" y="66" width="30" height="39" filterUnits="userSpaceOnUse" color-interpolation-filters="sRGB">
<feFlood flood-opacity="0" result="BackgroundImageFix"/>
<feColorMatrix in="SourceAlpha" type="matrix" values="0 0 0 0 0 0 0 0 0 0 0 0 0 0 0 0 0 0 127 0"/>
<feOffset dy="1"/>
<feColorMatrix type="matrix" values="0 0 0 0 0 0 0 0 0 0 0 0 0 0 0 0 0 0 0.4 0"/>
<feBlend mode="normal" in2="BackgroundImageFix" result="effect1_dropShadow"/>
<feBlend mode="normal" in="SourceGraphic" in2="effect1_dropShadow" result="shape"/>
</filter>
<filter id="filter15_d" x="209.766" y="66" width="30" height="39" filterUnits="userSpaceOnUse" color-interpolation-filters="sRGB">
<feFlood flood-opacity="0" result="BackgroundImageFix"/>
<feColorMatrix in="SourceAlpha" type="matrix" values="0 0 0 0 0 0 0 0 0 0 0 0 0 0 0 0 0 0 127 0"/>
<feOffset dy="1"/>
<feColorMatrix type="matrix" values="0 0 0 0 0 0 0 0 0 0 0 0 0 0 0 0 0 0 0.4 0"/>
<feBlend mode="normal" in2="BackgroundImageFix" result="effect1_dropShadow"/>
<feBlend mode="normal" in="SourceGraphic" in2="effect1_dropShadow" result="shape"/>
</filter>
<filter id="filter16_d" x="247.266" y="66" width="30" height="39" filterUnits="userSpaceOnUse" color-interpolation-filters="sRGB">
<feFlood flood-opacity="0" result="BackgroundImageFix"/>
<feColorMatrix in="SourceAlpha" type="matrix" values="0 0 0 0 0 0 0 0 0 0 0 0 0 0 0 0 0 0 127 0"/>
<feOffset dy="1"/>
<feColorMatrix type="matrix" values="0 0 0 0 0 0 0 0 0 0 0 0 0 0 0 0 0 0 0.4 0"/>
<feBlend mode="normal" in2="BackgroundImageFix" result="effect1_dropShadow"/>
<feBlend mode="normal" in="SourceGraphic" in2="effect1_dropShadow" result="shape"/>
</filter>
<filter id="filter17_d" x="284.766" y="66" width="30" height="39" filterUnits="userSpaceOnUse" color-interpolation-filters="sRGB">
<feFlood flood-opacity="0" result="BackgroundImageFix"/>
<feColorMatrix in="SourceAlpha" type="matrix" values="0 0 0 0 0 0 0 0 0 0 0 0 0 0 0 0 0 0 127 0"/>
<feOffset dy="1"/>
<feColorMatrix type="matrix" values="0 0 0 0 0 0 0 0 0 0 0 0 0 0 0 0 0 0 0.4 0"/>
<feBlend mode="normal" in2="BackgroundImageFix" result="effect1_dropShadow"/>
<feBlend mode="normal" in="SourceGraphic" in2="effect1_dropShadow" result="shape"/>
</filter>
<filter id="filter18_d" x="322.266" y="66" width="30" height="39" filterUnits="userSpaceOnUse" color-interpolation-filters="sRGB">
<feFlood flood-opacity="0" result="BackgroundImageFix"/>
<feColorMatrix in="SourceAlpha" type="matrix" values="0 0 0 0 0 0 0 0 0 0 0 0 0 0 0 0 0 0 127 0"/>
<feOffset dy="1"/>
<feColorMatrix type="matrix" values="0 0 0 0 0 0 0 0 0 0 0 0 0 0 0 0 0 0 0.4 0"/>
<feBlend mode="normal" in2="BackgroundImageFix" result="effect1_dropShadow"/>
<feBlend mode="normal" in="SourceGraphic" in2="effect1_dropShadow" result="shape"/>
</filter>
<filter id="filter19_d" x="59.7656" y="120" width="30" height="39" filterUnits="userSpaceOnUse" color-interpolation-filters="sRGB">
<feFlood flood-opacity="0" result="BackgroundImageFix"/>
<feColorMatrix in="SourceAlpha" type="matrix" values="0 0 0 0 0 0 0 0 0 0 0 0 0 0 0 0 0 0 127 0"/>
<feOffset dy="1"/>
<feColorMatrix type="matrix" values="0 0 0 0 0 0 0 0 0 0 0 0 0 0 0 0 0 0 0.4 0"/>
<feBlend mode="normal" in2="BackgroundImageFix" result="effect1_dropShadow"/>
<feBlend mode="normal" in="SourceGraphic" in2="effect1_dropShadow" result="shape"/>
</filter>
<filter id="filter20_d" x="97.2656" y="120" width="30" height="39" filterUnits="userSpaceOnUse" color-interpolation-filters="sRGB">
<feFlood flood-opacity="0" result="BackgroundImageFix"/>
<feColorMatrix in="SourceAlpha" type="matrix" values="0 0 0 0 0 0 0 0 0 0 0 0 0 0 0 0 0 0 127 0"/>
<feOffset dy="1"/>
<feColorMatrix type="matrix" values="0 0 0 0 0 0 0 0 0 0 0 0 0 0 0 0 0 0 0.4 0"/>
<feBlend mode="normal" in2="BackgroundImageFix" result="effect1_dropShadow"/>
<feBlend mode="normal" in="SourceGraphic" in2="effect1_dropShadow" result="shape"/>
</filter>
<filter id="filter21_d" x="134.766" y="120" width="30" height="39" filterUnits="userSpaceOnUse" color-interpolation-filters="sRGB">
<feFlood flood-opacity="0" result="BackgroundImageFix"/>
<feColorMatrix in="SourceAlpha" type="matrix" values="0 0 0 0 0 0 0 0 0 0 0 0 0 0 0 0 0 0 127 0"/>
<feOffset dy="1"/>
<feColorMatrix type="matrix" values="0 0 0 0 0 0 0 0 0 0 0 0 0 0 0 0 0 0 0.4 0"/>
<feBlend mode="normal" in2="BackgroundImageFix" result="effect1_dropShadow"/>
<feBlend mode="normal" in="SourceGraphic" in2="effect1_dropShadow" result="shape"/>
</filter>
<filter id="filter22_d" x="172.266" y="120" width="30" height="39" filterUnits="userSpaceOnUse" color-interpolation-filters="sRGB">
<feFlood flood-opacity="0" result="BackgroundImageFix"/>
<feColorMatrix in="SourceAlpha" type="matrix" values="0 0 0 0 0 0 0 0 0 0 0 0 0 0 0 0 0 0 127 0"/>
<feOffset dy="1"/>
<feColorMatrix type="matrix" values="0 0 0 0 0 0 0 0 0 0 0 0 0 0 0 0 0 0 0.4 0"/>
<feBlend mode="normal" in2="BackgroundImageFix" result="effect1_dropShadow"/>
<feBlend mode="normal" in="SourceGraphic" in2="effect1_dropShadow" result="shape"/>
</filter>
<filter id="filter23_d" x="209.766" y="120" width="30" height="39" filterUnits="userSpaceOnUse" color-interpolation-filters="sRGB">
<feFlood flood-opacity="0" result="BackgroundImageFix"/>
<feColorMatrix in="SourceAlpha" type="matrix" values="0 0 0 0 0 0 0 0 0 0 0 0 0 0 0 0 0 0 127 0"/>
<feOffset dy="1"/>
<feColorMatrix type="matrix" values="0 0 0 0 0 0 0 0 0 0 0 0 0 0 0 0 0 0 0.4 0"/>
<feBlend mode="normal" in2="BackgroundImageFix" result="effect1_dropShadow"/>
<feBlend mode="normal" in="SourceGraphic" in2="effect1_dropShadow" result="shape"/>
</filter>
<filter id="filter24_d" x="247.266" y="120" width="30" height="39" filterUnits="userSpaceOnUse" color-interpolation-filters="sRGB">
<feFlood flood-opacity="0" result="BackgroundImageFix"/>
<feColorMatrix in="SourceAlpha" type="matrix" values="0 0 0 0 0 0 0 0 0 0 0 0 0 0 0 0 0 0 127 0"/>
<feOffset dy="1"/>
<feColorMatrix type="matrix" values="0 0 0 0 0 0 0 0 0 0 0 0 0 0 0 0 0 0 0.4 0"/>
<feBlend mode="normal" in2="BackgroundImageFix" result="effect1_dropShadow"/>
<feBlend mode="normal" in="SourceGraphic" in2="effect1_dropShadow" result="shape"/>
</filter>
<filter id="filter25_d" x="284.766" y="120" width="30" height="39" filterUnits="userSpaceOnUse" color-interpolation-filters="sRGB">
<feFlood flood-opacity="0" result="BackgroundImageFix"/>
<feColorMatrix in="SourceAlpha" type="matrix" values="0 0 0 0 0 0 0 0 0 0 0 0 0 0 0 0 0 0 127 0"/>
<feOffset dy="1"/>
<feColorMatrix type="matrix" values="0 0 0 0 0 0 0 0 0 0 0 0 0 0 0 0 0 0 0.4 0"/>
<feBlend mode="normal" in2="BackgroundImageFix" result="effect1_dropShadow"/>
<feBlend mode="normal" in="SourceGraphic" in2="effect1_dropShadow" result="shape"/>
</filter>
<filter id="filter26_d" x="97.2656" y="174" width="30" height="39" filterUnits="userSpaceOnUse" color-interpolation-filters="sRGB">
<feFlood flood-opacity="0" result="BackgroundImageFix"/>
<feColorMatrix in="SourceAlpha" type="matrix" values="0 0 0 0 0 0 0 0 0 0 0 0 0 0 0 0 0 0 127 0"/>
<feOffset dy="1"/>
<feColorMatrix type="matrix" values="0 0 0 0 0 0 0 0 0 0 0 0 0 0 0 0 0 0 0.4 0"/>
<feBlend mode="normal" in2="BackgroundImageFix" result="effect1_dropShadow"/>
<feBlend mode="normal" in="SourceGraphic" in2="effect1_dropShadow" result="shape"/>
</filter>
<filter id="filter27_d" x="134.766" y="174" width="143" height="39" filterUnits="userSpaceOnUse" color-interpolation-filters="sRGB">
<feFlood flood-opacity="0" result="BackgroundImageFix"/>
<feColorMatrix in="SourceAlpha" type="matrix" values="0 0 0 0 0 0 0 0 0 0 0 0 0 0 0 0 0 0 127 0"/>
<feOffset dy="1"/>
<feColorMatrix type="matrix" values="0 0 0 0 0 0 0 0 0 0 0 0 0 0 0 0 0 0 0.4 0"/>
<feBlend mode="normal" in2="BackgroundImageFix" result="effect1_dropShadow"/>
<feBlend mode="normal" in="SourceGraphic" in2="effect1_dropShadow" result="shape"/>
</filter>
<filter id="filter28_d" x="329.297" y="120" width="42.1875" height="39" filterUnits="userSpaceOnUse" color-interpolation-filters="sRGB">
<feFlood flood-opacity="0" result="BackgroundImageFix"/>
<feColorMatrix in="SourceAlpha" type="matrix" values="0 0 0 0 0 0 0 0 0 0 0 0 0 0 0 0 0 0 127 0"/>
<feOffset dy="1"/>
<feColorMatrix type="matrix" values="0 0 0 0 0 0 0 0 0 0 0 0 0 0 0 0 0 0 0.4 0"/>
<feBlend mode="normal" in2="BackgroundImageFix" result="effect1_dropShadow"/>
<feBlend mode="normal" in="SourceGraphic" in2="effect1_dropShadow" result="shape"/>
</filter>
<filter id="filter29_d" x="3.51562" y="120" width="42.1875" height="39" filterUnits="userSpaceOnUse" color-interpolation-filters="sRGB">
<feFlood flood-opacity="0" result="BackgroundImageFix"/>
<feColorMatrix in="SourceAlpha" type="matrix" values="0 0 0 0 0 0 0 0 0 0 0 0 0 0 0 0 0 0 127 0"/>
<feOffset dy="1"/>
<feColorMatrix type="matrix" values="0 0 0 0 0 0 0 0 0 0 0 0 0 0 0 0 0 0 0.4 0"/>
<feBlend mode="normal" in2="BackgroundImageFix" result="effect1_dropShadow"/>
<feBlend mode="normal" in="SourceGraphic" in2="effect1_dropShadow" result="shape"/>
</filter>
<filter id="filter30_d" x="3.51562" y="174" width="39.8438" height="39" filterUnits="userSpaceOnUse" color-interpolation-filters="sRGB">
<feFlood flood-opacity="0" result="BackgroundImageFix"/>
<feColorMatrix in="SourceAlpha" type="matrix" values="0 0 0 0 0 0 0 0 0 0 0 0 0 0 0 0 0 0 127 0"/>
<feOffset dy="1"/>
<feColorMatrix type="matrix" values="0 0 0 0 0 0 0 0 0 0 0 0 0 0 0 0 0 0 0.4 0"/>
<feBlend mode="normal" in2="BackgroundImageFix" result="effect1_dropShadow"/>
<feBlend mode="normal" in="SourceGraphic" in2="effect1_dropShadow" result="shape"/>
</filter>
<filter id="filter31_d" x="50.3906" y="174" width="39.8437" height="39" filterUnits="userSpaceOnUse" color-interpolation-filters="sRGB">
<feFlood flood-opacity="0" result="BackgroundImageFix"/>
<feColorMatrix in="SourceAlpha" type="matrix" values="0 0 0 0 0 0 0 0 0 0 0 0 0 0 0 0 0 0 127 0"/>
<feOffset dy="1"/>
<feColorMatrix type="matrix" values="0 0 0 0 0 0 0 0 0 0 0 0 0 0 0 0 0 0 0.4 0"/>
<feBlend mode="normal" in2="BackgroundImageFix" result="effect1_dropShadow"/>
<feBlend mode="normal" in="SourceGraphic" in2="effect1_dropShadow" result="shape"/>
</filter>
<filter id="filter32_d" x="284.766" y="174" width="86.7188" height="39" filterUnits="userSpaceOnUse" color-interpolation-filters="sRGB">
<feFlood flood-opacity="0" result="BackgroundImageFix"/>
<feColorMatrix in="SourceAlpha" type="matrix" values="0 0 0 0 0 0 0 0 0 0 0 0 0 0 0 0 0 0 127 0"/>
<feOffset dy="1"/>
<feColorMatrix type="matrix" values="0 0 0 0 0 0 0 0 0 0 0 0 0 0 0 0 0 0 0.4 0"/>
<feBlend mode="normal" in2="BackgroundImageFix" result="effect1_dropShadow"/>
<feBlend mode="normal" in="SourceGraphic" in2="effect1_dropShadow" result="shape"/>
</filter>
<filter id="filter33_d" x="283" y="174" width="89" height="39" filterUnits="userSpaceOnUse" color-interpolation-filters="sRGB">
<feFlood flood-opacity="0" result="BackgroundImageFix"/>
<feColorMatrix in="SourceAlpha" type="matrix" values="0 0 0 0 0 0 0 0 0 0 0 0 0 0 0 0 0 0 127 0"/>
<feOffset dy="1"/>
<feColorMatrix type="matrix" values="0 0 0 0 0 0 0 0 0 0 0 0 0 0 0 0 0 0 0.4 0"/>
<feBlend mode="normal" in2="BackgroundImageFix" result="effect1_dropShadow"/>
<feBlend mode="normal" in="SourceGraphic" in2="effect1_dropShadow" result="shape"/>
</filter>
</defs>
</svg>
